<svg width="57" height="56" viewBox="0 0 57 56" fill="none" xmlns="http://www.w3.org/2000/svg">
<circle cx="28.5" cy="28" r="26.5" stroke="#D1EEFE" stroke-width="3"/>
<g clip-path="url(#clip0_485_36287)">
<path d="M48.0233 28.3742C48.0233 26.7355 47.8903 25.5396 47.6026 24.2994H28.8893V31.6961H39.8736C39.6522 33.5342 38.4563 36.3025 35.7987 38.1626L35.7615 38.4103L41.6783 42.9939L42.0882 43.0349C45.8529 39.5579 48.0233 34.4422 48.0233 28.3742Z" fill="#4285F4"/>
<path d="M28.8893 47.8626C34.2707 47.8626 38.7884 46.0908 42.0883 43.0348L35.7988 38.1626C34.1157 39.3363 31.8568 40.1557 28.8893 40.1557C23.6186 40.1557 19.1452 36.6789 17.5505 31.8733L17.3168 31.8931L11.1644 36.6545L11.084 36.8782C14.3615 43.389 21.0939 47.8626 28.8893 47.8626Z" fill="#34A853"/>
<path d="M17.5505 31.8733C17.1298 30.6331 16.8863 29.3043 16.8863 27.9313C16.8863 26.5582 17.1298 25.2295 17.5284 23.9893L17.5172 23.7252L11.2878 18.8873L11.084 18.9843C9.73312 21.6861 8.95801 24.7202 8.95801 27.9313C8.95801 31.1424 9.73312 34.1763 11.084 36.8782L17.5505 31.8733Z" fill="#FBBC05"/>
<path d="M28.8893 15.7067C32.6319 15.7067 35.1565 17.3234 36.596 18.6744L42.2211 13.1821C38.7664 9.97099 34.2707 8 28.8893 8C21.0939 8 14.3615 12.4734 11.084 18.9843L17.5284 23.9893C19.1452 19.1837 23.6186 15.7067 28.8893 15.7067Z" fill="#EB4335"/>
</g>
<defs>
<clipPath id="clip0_485_36287">
<rect width="40" height="40" fill="white" transform="translate(8.5 8)"/>
</clipPath>
</defs>
</svg>
