<svg width="383" height="356" viewBox="0 0 383 356" fill="none" xmlns="http://www.w3.org/2000/svg">
<g clip-path="url(#clip0_439_35794)">
<path d="M56.0903 329.246C130.88 364.917 252.132 364.917 326.911 329.246C401.701 293.576 401.701 235.736 326.911 200.065C252.122 164.395 130.869 164.395 56.0903 200.065C-18.6994 235.736 -18.6994 293.576 56.0903 329.246Z" fill="#203E4C"/>
<path d="M326.661 302.885C340.436 302.885 351.602 297.56 351.602 290.991C351.602 284.423 340.436 279.098 326.661 279.098C312.887 279.098 301.721 284.423 301.721 290.991C301.721 297.56 312.887 302.885 326.661 302.885Z" fill="#213E4C"/>
<path d="M50.3613 292.697L59.1742 287.603C59.1742 287.603 66.4458 282.248 70.0491 272.32C72.7733 264.804 72.4043 259.09 70.4398 256.223C68.0304 252.693 61.8115 253.312 61.5727 260.752C61.0952 275.383 56.819 285.518 50.3613 292.697Z" fill="#27DEBF"/>
<path opacity="0.2" d="M50.3613 292.697L59.1742 287.603C59.1742 287.603 66.4458 282.248 70.0491 272.32C72.7733 264.804 72.4043 259.09 70.4398 256.223C68.0304 252.693 61.8115 253.312 61.5727 260.752C61.0952 275.383 56.819 285.518 50.3613 292.697Z" fill="#5BBFA8"/>
<path d="M50.3608 293.24C50.1872 293.24 50.0244 293.153 49.9159 293.001C49.7422 292.751 49.8073 292.415 50.057 292.241C70.461 278.109 66.5105 258.428 66.4671 258.232C66.4019 257.939 66.5864 257.646 66.8795 257.591C67.1725 257.526 67.4656 257.711 67.5198 258.004C67.5632 258.21 71.6875 278.576 50.6756 293.131C50.5779 293.208 50.4694 293.24 50.3608 293.24Z" fill="white"/>
<path d="M32.7234 302.886C32.7234 302.886 29.652 300.387 30.4008 296.999C31.1389 293.61 33.125 291.177 29.7171 286.81C26.3092 282.444 25.4301 276.622 29.4349 273.461C32.5281 271.017 37.3578 274.482 39.1051 268.008C40.375 263.294 39.9408 252.856 45.9535 249.38C51.9662 245.904 55.6889 251.139 54.7664 258.211C53.9415 264.543 52.7802 270.647 53.6702 272.298C55.4284 275.546 58.4348 275.112 58.2937 281.064C58.1634 286.604 52.9322 291.187 52.9322 291.187L32.7234 302.886Z" fill="#D9F9FF"/>
<path d="M42.8069 297.596C42.5355 297.596 42.2968 297.39 42.2642 297.118C40.7122 284.247 44.4131 262.023 47.4738 255.419C47.604 255.147 47.9187 255.028 48.1901 255.158C48.4614 255.289 48.5808 255.604 48.4505 255.875C45.4442 262.371 41.8518 284.681 43.3387 296.988C43.3712 297.281 43.165 297.553 42.8611 297.596C42.8503 297.596 42.8286 297.596 42.8069 297.596Z" fill="white"/>
<path d="M42.5133 287.581C42.4373 287.581 42.3505 287.559 42.2745 287.527C38.5084 285.68 36.1207 279.141 36.0231 278.859C35.9254 278.576 36.0665 278.261 36.3487 278.164C36.6308 278.066 36.9456 278.207 37.0433 278.49C37.065 278.555 39.3767 284.898 42.7521 286.549C43.0234 286.679 43.1319 287.005 43.0017 287.277C42.9149 287.472 42.7195 287.581 42.5133 287.581Z" fill="white"/>
<path d="M42.4592 291.915C42.2421 291.915 42.0359 291.785 41.96 291.578C41.8514 291.296 41.9817 290.981 42.2639 290.872C48.6021 288.331 52.5527 280.771 52.5961 280.695C52.7372 280.423 53.0628 280.326 53.3233 280.467C53.5946 280.608 53.6923 280.934 53.5621 281.194C53.3993 281.52 49.3836 289.189 42.6763 291.883C42.5895 291.904 42.5243 291.915 42.4592 291.915Z" fill="white"/>
<path d="M264.005 233.49C264.005 233.49 259.262 225.811 258.806 217.447C258.35 209.083 260.184 205.618 262.702 204.619C265.22 203.62 265.405 206.694 266.707 208.507C268.01 210.321 270.636 209.29 271.602 203.63C272.568 197.971 276.139 188.391 283.508 186.566C291.648 184.546 287.285 194.105 285.234 197.83C283.193 201.556 281.598 206.639 282.944 208.019C284.289 209.398 286.384 206.846 288.381 209.213C290.801 212.07 283.28 222.346 278.961 224.844L264.005 233.49Z" fill="#D9F9FF"/>
<path d="M270.505 230.253C270.494 230.253 270.483 230.253 270.472 230.253C270.169 230.242 269.941 229.982 269.962 229.678C271.156 207.432 281.999 192.03 282.118 191.878C282.292 191.628 282.628 191.574 282.878 191.748C283.117 191.921 283.182 192.258 283.008 192.508C282.899 192.66 272.242 207.823 271.059 229.732C271.026 230.025 270.787 230.253 270.505 230.253Z" fill="white"/>
<path d="M271.124 223.844C271.037 223.844 270.94 223.822 270.864 223.779C267.825 222.095 266.143 217.099 266.067 216.892C265.969 216.61 266.121 216.306 266.414 216.208C266.696 216.11 267.011 216.273 267.098 216.556C267.109 216.599 268.715 221.357 271.385 222.834C271.645 222.975 271.743 223.312 271.602 223.573C271.504 223.736 271.309 223.844 271.124 223.844Z" fill="white"/>
<path d="M271.656 220.553C271.417 220.553 271.189 220.39 271.135 220.14C271.059 219.847 271.233 219.554 271.526 219.478C279.362 217.49 282.075 213.384 282.097 213.341C282.26 213.091 282.596 213.015 282.846 213.178C283.095 213.341 283.171 213.678 283.008 213.927C282.889 214.112 280.078 218.435 271.786 220.531C271.743 220.542 271.699 220.553 271.656 220.553Z" fill="white"/>
<path d="M145.944 216.599C145.944 216.599 135.536 214.057 134.993 194.56C134.407 173.509 137.544 148.951 125.269 146.952C112.994 144.953 106.102 160.019 106.265 177.518C106.406 192.887 112.592 226.233 145.944 232.772V216.599Z" fill="#27DEBF"/>
<path opacity="0.2" d="M145.944 216.599C145.944 216.599 135.536 214.057 134.993 194.56C134.407 173.509 137.544 148.951 125.269 146.952C112.994 144.953 106.102 160.019 106.265 177.518C106.406 192.887 112.592 226.233 145.944 232.772V216.599Z" fill="#5BBFA8"/>
<path d="M145.943 230.763C145.911 230.763 145.878 230.763 145.845 230.752C138.335 229.383 132.235 225.256 127.688 218.467C114.208 198.34 118.452 160.757 119.852 154.197C119.917 153.903 120.199 153.719 120.492 153.773C120.785 153.838 120.97 154.121 120.916 154.414C119.537 160.909 115.326 198.036 128.6 217.859C132.973 224.387 138.845 228.362 146.052 229.676C146.345 229.731 146.54 230.013 146.486 230.306C146.421 230.578 146.193 230.763 145.943 230.763Z" fill="white"/>
<path d="M145.944 280.825C135.188 282.281 117.704 282.259 107.643 274.308C97.5711 266.357 99.6658 259.514 103.54 256.657C107.415 253.801 110.779 250.531 104.116 244.199C97.4517 237.855 86.7396 227.667 83.2774 212.384C79.8152 197.101 81.5192 187.543 88.335 184.36C94.9446 181.275 96.692 186.174 100.74 196.308C104.789 206.432 113.894 197.753 121.687 200.914C129.48 204.075 129.165 210.331 129.664 215.708C130.153 221.084 132.725 222.572 137.131 222.572C141.538 222.572 145.944 225.114 145.944 230.219V280.825Z" fill="#D9F9FF"/>
<path d="M145.943 263.087C145.9 263.087 145.846 263.076 145.802 263.065C145.336 262.935 134.211 259.698 118.007 244.806C100.751 228.948 92.6106 205.16 92.5238 204.921C92.4261 204.639 92.578 204.324 92.8602 204.237C93.1424 204.139 93.4572 204.291 93.544 204.573C93.62 204.812 101.684 228.339 118.734 244.002C134.71 258.698 145.976 261.99 146.085 262.022C146.378 262.109 146.54 262.402 146.464 262.696C146.399 262.924 146.182 263.087 145.943 263.087Z" fill="white"/>
<path d="M122.513 248.598C122.295 248.598 122.089 248.468 122.002 248.251C118.519 239.29 117.726 220.14 117.694 219.336C117.683 219.032 117.911 218.782 118.215 218.771C118.497 218.771 118.768 218.989 118.779 219.293C118.79 219.488 119.593 239.072 123.012 247.86C123.12 248.142 122.979 248.457 122.708 248.566C122.643 248.587 122.578 248.598 122.513 248.598Z" fill="white"/>
<path d="M122.414 261.479C120.732 261.479 119.559 261.349 119.418 261.327C119.125 261.295 118.908 261.023 118.941 260.719C118.973 260.426 119.245 260.197 119.549 260.241C119.646 260.252 129.751 261.392 134.385 256.656C134.591 256.439 134.938 256.439 135.155 256.646C135.373 256.852 135.373 257.2 135.166 257.417C131.769 260.893 125.952 261.479 122.414 261.479Z" fill="white"/>
<path d="M156.635 295.368L258.677 236.398C259.719 235.801 259.719 234.823 258.677 234.226L249.234 228.763C248.193 228.165 246.51 228.165 245.479 228.763L143.404 287.732C142.363 288.329 142.363 289.307 143.404 289.904L152.869 295.379C153.921 295.965 155.604 295.965 156.635 295.368Z" fill="#213E4C"/>
<path d="M255.866 8.7648L163.864 61.9231C161.27 63.4221 159.164 67.0717 159.164 70.0696V288.471C159.164 291.468 161.27 292.685 163.864 291.186L255.866 238.028C258.46 236.529 260.566 232.879 260.566 229.881V11.4803C260.566 8.48239 258.46 7.26585 255.866 8.7648Z" fill="#455A64"/>
<path d="M163.863 61.9235L255.866 8.76516C258.188 7.42914 260.109 8.25464 260.489 10.59C260.131 7.78758 258.21 4.68107 255.866 3.33419L252.034 1.11835C249.44 -0.380596 245.229 -0.380596 242.635 1.11835L150.643 54.2875C149.341 55.037 148.169 56.3296 147.322 57.7959L160.552 65.4427C161.388 63.9655 162.571 62.673 163.863 61.9235Z" fill="#37474F"/>
<path d="M145.944 280.824C145.944 283.822 148.05 287.472 150.644 288.971L154.475 291.186C156.819 292.544 160.477 292.664 163.071 291.567C160.857 292.403 159.164 291.154 159.164 288.471V70.07C159.164 68.5711 159.685 66.9092 160.542 65.432L147.312 57.7852C146.465 59.2624 145.934 60.9243 145.934 62.4232L145.944 280.824Z" fill="#263238"/>
<path d="M166.392 91.0334L253.337 40.7969C254.9 39.8954 256.159 40.6232 256.159 42.4262V204.03C256.159 205.833 254.9 208.016 253.337 208.918L166.392 259.154C164.84 260.056 163.57 259.328 163.57 257.525V95.9104C163.57 94.1182 164.84 91.9349 166.392 91.0334Z" fill="#F6F6F6"/>
<path d="M209.87 43.6319C208.959 44.1642 208.221 45.4459 208.221 46.4995C208.221 47.5531 208.959 47.9876 209.87 47.4553C210.782 46.9231 211.52 45.6414 211.52 44.5878C211.52 43.5342 210.782 43.0997 209.87 43.6319Z" fill="#37474F"/>
<path d="M209.87 241.798C206.267 243.884 203.348 248.945 203.348 253.116C203.348 257.276 206.267 258.971 209.87 256.885C213.474 254.8 216.393 249.738 216.393 245.567C216.393 241.407 213.474 239.724 209.87 241.798Z" fill="#37474F"/>
<path d="M194.252 60.4455C192.428 61.4991 190.941 64.0625 190.941 66.1806C190.941 68.2878 192.417 69.1459 194.252 68.0923C196.075 67.0387 197.562 64.4753 197.562 62.3572C197.562 60.2391 196.075 59.381 194.252 60.4455Z" fill="#37474F"/>
<path d="M202.338 59.7292C202.338 61.1304 203.391 61.6735 204.693 60.924L226.443 48.3567C227.745 47.6072 228.798 45.8585 228.798 44.4464C228.798 43.0344 227.745 42.5021 226.443 43.2516L204.693 55.8189C203.391 56.5683 202.338 58.3171 202.338 59.7292Z" fill="#37474F"/>
<path d="M153.26 98.0294C154.725 98.8767 155.908 100.93 155.908 102.613C155.908 104.297 154.725 104.981 153.26 104.145C151.794 103.297 150.611 101.245 150.611 99.561C150.611 97.8665 151.794 97.1822 153.26 98.0294Z" fill="#37474F"/>
<path d="M153.26 118.417C154.725 119.264 155.908 121.317 155.908 123.001C155.908 124.685 154.725 125.369 153.26 124.533C151.794 123.685 150.611 121.632 150.611 119.949C150.611 118.265 151.794 117.581 153.26 118.417Z" fill="#37474F"/>
<path d="M152.445 98.4309C153.91 99.2781 155.093 101.331 155.093 103.015C155.093 104.698 153.91 105.383 152.445 104.546C150.98 103.699 149.797 101.646 149.797 99.9624C149.797 98.2788 150.98 97.5945 152.445 98.4309Z" fill="#455A64"/>
<path d="M152.445 118.828C153.91 119.675 155.093 121.728 155.093 123.412C155.093 125.096 153.91 125.78 152.445 124.944C150.98 124.096 149.797 122.043 149.797 120.36C149.797 118.676 150.98 117.981 152.445 118.828Z" fill="#455A64"/>
<path d="M273.796 47.5297C273.796 45.7267 272.537 44.9989 270.974 45.9005L260.566 51.918L184.029 96.1369C182.466 97.0385 181.207 99.2217 181.207 101.025V262.629C181.207 264.432 182.466 265.16 184.029 264.258L260.588 220.017L270.963 214.022C272.515 213.12 273.785 210.937 273.785 209.134L273.796 47.5297Z" fill="#F6F6F6"/>
<path d="M182.77 265.192C182.411 265.192 182.064 265.105 181.76 264.932C181.055 264.519 180.664 263.704 180.664 262.629V101.025C180.664 99.0265 182.021 96.6694 183.757 95.6701L260.294 51.4512L260.837 52.3962L184.3 96.6151C182.922 97.408 181.749 99.4392 181.749 101.036V262.64C181.749 263.302 181.956 263.791 182.303 263.998C182.661 264.204 183.182 264.128 183.757 263.802L260.316 219.561L260.859 220.506L184.3 264.747C183.768 265.04 183.247 265.192 182.77 265.192Z" fill="#27DEBF" stroke="#27DEBF" stroke-miterlimit="10"/>
<path d="M260.87 220.496L260.327 219.551L270.703 213.555C272.082 212.752 273.254 210.731 273.254 209.135V47.5198C273.254 46.8572 273.047 46.3684 272.7 46.162C272.353 45.9557 271.821 46.0317 271.246 46.3575L260.838 52.3751L260.295 51.4301L270.703 45.4126C271.626 44.8803 272.527 44.8043 273.243 45.217C273.948 45.6298 274.339 46.4444 274.339 47.5089V209.124C274.339 211.122 272.982 213.479 271.246 214.479L260.87 220.496Z" fill="#27DEBF" stroke="#27DEBF" stroke-miterlimit="10"/>
<path d="M227.506 85.0914C237.241 79.465 245.142 84.027 245.142 95.2799C245.142 106.533 237.252 120.219 227.506 125.845C217.77 131.472 209.869 126.91 209.869 115.657C209.869 104.404 217.759 90.7179 227.506 85.0914Z" fill="#D9F9FF"/>
<path d="M227.505 93.9441C230.663 92.1193 233.224 93.5966 233.224 97.2462C233.224 100.896 230.663 105.338 227.505 107.163C224.347 108.988 221.785 107.511 221.785 103.861C221.785 100.211 224.336 95.7689 227.505 93.9441Z" fill="#27DEBF"/>
<path d="M238.652 113.42C238.652 107.424 234.441 104.991 229.253 107.989L226.008 109.868C220.82 112.866 216.609 120.165 216.609 126.161V127.779C219.605 128.778 223.393 128.235 227.506 125.856C231.739 123.413 235.613 119.448 238.652 114.821V113.42Z" fill="#27DEBF"/>
<path opacity="0.7" d="M227.507 93.9441C230.665 92.1193 233.226 93.5966 233.226 97.2462C233.226 100.896 230.665 105.338 227.507 107.163C224.348 108.988 221.787 107.511 221.787 103.861C221.787 100.211 224.338 95.7689 227.507 93.9441Z" fill="white"/>
<path opacity="0.7" d="M238.652 113.42C238.652 107.424 234.441 104.991 229.253 107.989L226.008 109.868C220.82 112.866 216.609 120.165 216.609 126.161V127.779C219.605 128.778 223.393 128.235 227.506 125.856C231.739 123.413 235.613 119.448 238.652 114.821V113.42Z" fill="white"/>
<path d="M193.384 150.666L216.078 137.556C217.12 136.958 217.955 137.447 217.955 138.642V139.391C217.955 140.597 217.109 142.053 216.078 142.65L193.384 155.76C192.342 156.358 191.506 155.869 191.506 154.674V153.925C191.495 152.73 192.342 151.274 193.384 150.666Z" fill="#27DEBF"/>
<path opacity="0.1" d="M193.384 150.666L216.078 137.556C217.12 136.958 217.955 137.447 217.955 138.642V139.391C217.955 140.597 217.109 142.053 216.078 142.65L193.384 155.76C192.342 156.358 191.506 155.869 191.506 154.674V153.925C191.495 152.73 192.342 151.274 193.384 150.666Z" fill="#5BBFA8"/>
<path d="M192.44 166.503L261.098 126.835C261.619 126.531 262.042 126.781 262.042 127.378V135.394C262.042 135.992 261.619 136.719 261.098 137.023L192.44 176.691C191.919 176.995 191.496 176.746 191.496 176.148V168.132C191.507 167.524 191.919 166.796 192.44 166.503Z" fill="#27DEBF"/>
<path opacity="0.2" d="M192.44 166.503L261.098 126.835C261.619 126.531 262.042 126.781 262.042 127.378V135.394C262.042 135.992 261.619 136.719 261.098 137.023L192.44 176.691C191.919 176.995 191.496 176.746 191.496 176.148V168.132C191.507 167.524 191.919 166.796 192.44 166.503Z" fill="#D9F9FF"/>
<path d="M193.384 186.336L216.078 173.226C217.12 172.628 217.955 173.117 217.955 174.312V175.061C217.955 176.256 217.109 177.723 216.078 178.32L193.384 191.43C192.342 192.028 191.506 191.539 191.506 190.344V189.595C191.495 188.389 192.342 186.933 193.384 186.336Z" fill="#27DEBF"/>
<path opacity="0.1" d="M193.384 186.336L216.078 173.226C217.12 172.628 217.955 173.117 217.955 174.312V175.061C217.955 176.256 217.109 177.723 216.078 178.32L193.384 191.43C192.342 192.028 191.506 191.539 191.506 190.344V189.595C191.495 188.389 192.342 186.933 193.384 186.336Z" fill="#5BBFA8"/>
<path d="M192.44 202.163L261.098 162.495C261.619 162.191 262.042 162.441 262.042 163.038V171.054C262.042 171.652 261.619 172.379 261.098 172.684L192.44 212.351C191.919 212.656 191.496 212.406 191.496 211.808V203.792C191.507 203.195 191.919 202.456 192.44 202.163Z" fill="#27DEBF"/>
<path opacity="0.2" d="M192.44 202.163L261.098 162.495C261.619 162.191 262.042 162.441 262.042 163.038V171.054C262.042 171.652 261.619 172.379 261.098 172.684L192.44 212.351C191.919 212.656 191.496 212.406 191.496 211.808V203.792C191.507 203.195 191.919 202.456 192.44 202.163Z" fill="#D9F9FF"/>
<path d="M219.833 206.713L246.933 191.05C247.975 190.452 248.811 190.941 248.811 192.136V200.532C248.811 201.727 247.964 203.194 246.933 203.791L219.833 219.454C218.791 220.051 217.955 219.562 217.955 218.368V209.971C217.955 208.766 218.791 207.31 219.833 206.713Z" fill="#27DEBF"/>
<path opacity="0.1" d="M219.833 206.713L246.933 191.05C247.975 190.452 248.811 190.941 248.811 192.136V200.532C248.811 201.727 247.964 203.194 246.933 203.791L219.833 219.454C218.791 220.051 217.955 219.562 217.955 218.368V209.971C217.955 208.766 218.791 207.31 219.833 206.713Z" fill="#EB693D"/>
<path d="M284.084 171.324C284.084 171.324 270.745 152.913 269.942 150.73C269.323 149.079 269.985 146.624 270.137 145.483C270.289 144.343 270.506 141.801 270.702 141.095C271.038 139.857 269.432 140.118 268.542 141.236C267.619 142.388 267.326 144.625 266.87 144.995C266.415 145.364 262.855 140.183 260.988 137.782C259.132 135.382 257.971 133.937 256.842 134.828C256.028 135.469 256.636 136.87 257.982 138.901C259.327 140.943 259.924 141.888 260.131 142.322C260.337 142.757 259.23 142.8 258.633 143.713C258.166 144.43 258.6 145.592 257.982 146.146C257.363 146.7 256.788 147.699 257.461 148.829C258.329 150.263 260.055 152.305 262.052 153.695C264.049 155.074 264.852 155.563 266.024 157.442C267.196 159.321 277.821 178.514 278.538 179.666C279.254 180.817 280.632 183.163 282.727 183.229C284.822 183.294 301.97 168.521 302.849 167.783C305.671 165.426 306.561 165.078 307.049 167.207C307.201 167.87 307.299 168.63 307.407 169.488C307.744 172.182 309.578 181.806 309.578 181.806C309.578 181.806 318.25 186.009 325.391 183.935C332.533 181.86 334.931 178.873 334.931 178.873L331.36 173.051C332.337 170.65 336.82 160.918 338.231 154.108L315.873 150.491C315.417 150.393 314.679 150.208 313.746 149.958C312.519 149.633 309.437 148.546 307.049 150.621C299.354 157.334 284.084 171.324 284.084 171.324Z" fill="#FFA8A7"/>
<path d="M328.409 284.223L324.404 289.795C324.404 289.795 326.26 290.881 330.222 291.033C333.803 291.174 334.791 289.99 334.921 289.708C335.529 288.404 334.585 286.058 334.324 284.049L328.409 284.223Z" fill="#37474F"/>
<path d="M324.62 287.112C324.62 287.112 319.769 286.797 316.404 286.384C313.051 285.961 310.392 287.601 311.184 288.98C311.976 290.36 313.821 291.511 316.697 292.478C319.161 293.303 322.124 293.912 324.696 294.683C327.333 295.476 329.027 296.377 330.513 295.867C332.185 295.291 332.89 294.629 332.749 293.412C332.608 292.196 331.403 288.285 331.403 288.285L324.62 287.112Z" fill="#37474F"/>
<path d="M334.92 278.619C334.92 278.619 334.312 283.681 334.269 284.767C334.225 285.853 329.33 286.201 328.408 284.213L328.256 278.021L334.92 278.619Z" fill="#F28F8F"/>
<path d="M329.992 281.736L331.74 289.416C331.74 289.416 331.902 290.35 327.908 290.947C323.914 291.545 317.641 288.851 316.578 288.308C315.514 287.765 315.384 286.679 319.313 286.896C323.241 287.113 324.631 287.124 324.631 287.124L323.361 283.724L329.992 281.736Z" fill="#FFA8A7"/>
<path d="M338.231 154.12L340.998 153.359C340.998 153.359 346.794 171.683 347.423 173.443C348.064 175.203 348.78 177.093 347.543 179.276C346.056 181.872 338.231 192.332 338.231 192.332L333.26 187.466L338.893 177.136L333.911 167.024L338.231 154.12Z" fill="#F28F8F"/>
<path d="M309.774 130.31C309.774 130.31 307.56 126.758 309.893 122.413C312.639 117.297 318.793 114.788 326.108 115.755C329.494 116.2 333.477 118.981 335.67 123.217C338.079 127.877 338.296 137.261 338.893 140.813L309.774 130.31Z" fill="#37474F"/>
<path d="M309.599 132.309C309.599 132.309 307.863 135.621 308.167 135.926C308.47 136.23 309.632 136.469 309.632 136.469L309.599 132.309Z" fill="#FFA8A7"/>
<path d="M314.886 121.837C312.997 123.075 309.742 125.323 309.6 132.775C309.459 140.421 310.534 142.876 311.663 143.767C312.422 144.364 316.883 144.06 318.793 143.615C320.703 143.169 326.217 140.443 328.192 136.305C330.525 131.439 330.048 124.313 326.586 122.238C321.702 119.327 316.481 120.794 314.886 121.837Z" fill="#FFA8A7"/>
<path d="M334.921 178.895C338.264 184.108 341.454 188.703 342.127 194.557C343.56 206.929 338.86 221.071 337.862 230.217C337.862 230.217 341.02 234.323 341.02 239.157C341.02 242.937 334.921 278.618 334.921 278.618C334.921 278.618 330.493 279.965 328.246 278.031L324.057 212.393L326.26 204.398L334.921 178.895Z" fill="#27DEBF"/>
<path opacity="0.2" d="M334.921 178.895C338.264 184.108 341.454 188.703 342.127 194.557C343.56 206.929 338.86 221.071 337.862 230.217C337.862 230.217 341.02 234.323 341.02 239.157C341.02 242.937 334.921 278.618 334.921 278.618C334.921 278.618 330.493 279.965 328.246 278.031L324.057 212.393L326.26 204.398L334.921 178.895Z" fill="#5BBFA8"/>
<path d="M324.066 212.382L326.27 204.387C326.27 204.387 332.38 202.91 338.219 199.641C338.219 199.641 335.962 203.757 329.471 206.006L326.096 216.281L325.803 239.786L324.066 212.382Z" fill="#27DEBF"/>
<path opacity="0.3" d="M324.066 212.382L326.27 204.387C326.27 204.387 332.38 202.91 338.219 199.641C338.219 199.641 335.962 203.757 329.471 206.006L326.096 216.281L325.803 239.786L324.066 212.382Z" fill="black"/>
<path d="M334.92 178.895C336.711 181.816 340.987 186.824 340.086 191.625C338.979 197.447 335.853 201.542 326.27 204.388L317.284 236.952C317.284 236.952 321.961 241.329 323.394 245.5C324.827 249.671 329.993 281.735 329.993 281.735C329.993 281.735 328.397 284.342 323.35 283.712C323.35 283.712 305.757 243.501 304.509 240.905C303.272 238.32 302.458 236.376 303.022 232.161C303.587 227.947 309.578 181.816 309.578 181.816L334.92 178.895Z" fill="#27DEBF"/>
<path opacity="0.2" d="M334.92 178.895C336.711 181.816 340.987 186.824 340.086 191.625C338.979 197.447 335.853 201.542 326.27 204.388L317.284 236.952C317.284 236.952 321.961 241.329 323.394 245.5C324.827 249.671 329.993 281.735 329.993 281.735C329.993 281.735 328.397 284.342 323.35 283.712C323.35 283.712 305.757 243.501 304.509 240.905C303.272 238.32 302.458 236.376 303.022 232.161C303.587 227.947 309.578 181.816 309.578 181.816L334.92 178.895Z" fill="#5BBFA8"/>
<path d="M338.231 154.12L315.873 150.503C315.418 150.405 314.679 150.221 313.746 149.971C313.746 149.971 312.791 164.004 307.061 167.219C307.202 167.893 307.31 168.642 307.419 169.5C307.755 172.194 309.589 181.818 309.589 181.818C309.589 181.818 318.261 186.021 325.403 183.947C332.544 181.872 334.942 178.885 334.942 178.885L331.372 173.063C332.327 170.663 336.82 160.941 338.231 154.12Z" fill="#27DEBF"/>
<path opacity="0.7" d="M338.231 154.12L315.873 150.503C315.418 150.405 314.679 150.221 313.746 149.971C313.746 149.971 312.791 164.004 307.061 167.219C307.202 167.893 307.31 168.642 307.419 169.5C307.755 172.194 309.589 181.818 309.589 181.818C309.589 181.818 318.261 186.021 325.403 183.947C332.544 181.872 334.942 178.885 334.942 178.885L331.372 173.063C332.327 170.663 336.82 160.941 338.231 154.12Z" fill="#D9F9FF"/>
<path d="M332.326 170.781C332.239 170.988 325.141 174.8 323.035 175.376C326.356 175.213 329.124 174.431 331.36 173.073L332.326 170.781Z" fill="#27DEBF"/>
<path d="M314.32 122.218C314.32 122.218 313.278 129.279 315.807 133.428C315.807 133.428 316.751 130.615 319.139 131.158C321.537 131.701 321.646 134.818 319.975 136.589C318.303 138.359 316.447 137.718 316.447 137.718C316.447 137.718 316.067 142.823 315.872 147.103C315.677 151.231 314.526 160.713 319.345 164.526C324.153 168.338 336.222 169.631 341.876 161.712C345.024 157.313 340.845 149.536 338.903 140.814C337.112 132.798 336.113 120.915 327.604 119.003C319.096 117.091 314.32 122.218 314.32 122.218Z" fill="#37474F"/>
<path d="M345.513 25.7429L343.723 26.7748C343.864 26.1122 343.972 25.4605 343.972 24.8305C343.972 21.1918 341.422 19.7254 338.274 21.5394C337.363 22.0716 336.505 22.8319 335.745 23.7118C335.745 23.7009 335.745 23.69 335.745 23.69C335.745 18.8022 332.316 16.8144 328.083 19.2584C323.85 21.7023 320.421 27.6546 320.421 32.5425C320.421 32.7923 320.432 33.0313 320.453 33.2594C319.552 33.0965 318.489 33.3246 317.338 33.9871C314.191 35.8011 311.64 40.2219 311.64 43.8606C311.64 44.3603 311.695 44.8165 311.781 45.2292L310.826 45.7832C308.233 47.2822 306.127 50.2149 306.127 52.3221C306.127 54.4293 308.233 54.929 310.826 53.43L345.513 33.3897C348.107 31.8908 350.213 28.9581 350.213 26.8509C350.213 24.7436 348.107 24.244 345.513 25.7429Z" fill="#203E4C"/>
</g>
<defs>
<clipPath id="clip0_439_35794">
<rect width="383" height="356" fill="white"/>
</clipPath>
</defs>
</svg>
