<svg width="36" height="36" viewBox="0 0 36 36" fill="none" xmlns="http://www.w3.org/2000/svg">
<circle cx="18" cy="18" r="18" fill="white" fill-opacity="0.2"/>
<path d="M16.0264 15.7536V24.4243H18.7185V20.1364C18.7185 19.005 18.9314 17.9093 20.3343 17.9093C21.7178 17.9093 21.735 19.2029 21.735 20.2079V24.425H24.4286V19.67C24.4286 17.3343 23.9257 15.5393 21.1957 15.5393C19.885 15.5393 19.0064 16.2586 18.6471 16.9393H18.6107V15.7536H16.0264ZM11.6393 15.7536H14.3357V24.4243H11.6393V15.7536Z" fill="white"/>
<path d="M13.1343 14.6972C13.9974 14.6972 14.6971 13.9974 14.6971 13.1343C14.6971 12.2712 13.9974 11.5714 13.1343 11.5714C12.2711 11.5714 11.5714 12.2712 11.5714 13.1343C11.5714 13.9974 12.2711 14.6972 13.1343 14.6972Z" fill="white"/>
</svg>
