<svg width="36" height="36" viewBox="0 0 36 36" fill="none" xmlns="http://www.w3.org/2000/svg">
<g clip-path="url(#clip0_485_36252)">
<path d="M14.1678 36C14.0277 36 13.886 35.972 13.7506 35.9136C13.2766 35.7092 13.0202 35.1918 13.1447 34.6909L16.7112 20.3346H7.10162C6.75378 20.3346 6.42831 20.1632 6.23165 19.8762C6.03498 19.5893 5.99244 19.2239 6.11795 18.8994L13.1676 0.674224C13.3247 0.26789 13.7155 0 14.1512 0H23.8515C24.2079 0 24.5402 0.179999 24.735 0.478545C24.9296 0.777091 24.9604 1.15375 24.8167 1.47993L20.6423 10.9552H28.8984C29.2841 10.9552 29.6391 11.1658 29.824 11.5043C30.0089 11.8428 29.9943 12.2553 29.7858 12.5798L15.0557 35.5151C14.8565 35.8253 14.5177 36 14.1678 36Z" fill="white"/>
</g>
<defs>
<clipPath id="clip0_485_36252">
<rect width="36" height="36" fill="white"/>
</clipPath>
</defs>
</svg>
