<svg width="410" height="416" viewBox="0 0 410 416" fill="none" xmlns="http://www.w3.org/2000/svg">
<g clip-path="url(#clip0_611_2287)">
<path d="M349.477 212.661C269.16 166.295 139.367 166.295 59.5724 212.661C-20.2316 259.026 -19.8042 334.205 60.5127 380.57C140.83 426.935 270.632 426.935 350.427 380.57C430.221 334.195 429.803 259.026 349.477 212.661Z" fill="#203E4C"/>
<path d="M236.193 183.028C245.444 188.366 245.492 197.027 236.307 202.365C227.113 207.702 212.172 207.702 202.921 202.365C193.669 197.027 193.622 188.366 202.816 183.028C212.001 177.691 226.951 177.691 236.193 183.028Z" fill="#172B35"/>
<path d="M37.9272 334.147L46.5421 338.801C48.2518 339.722 50.3224 339.694 52.0036 338.715L173.41 268.304C175.3 267.211 175.262 264.467 173.334 263.422L161.964 257.277L37.8512 329.266C35.9611 330.367 35.9991 333.103 37.9272 334.147Z" fill="#12252F"/>
<path d="M307.116 318.145C289.287 307.85 260.479 307.85 242.765 318.145C225.051 328.44 225.146 345.126 242.974 355.412C260.802 365.707 289.61 365.707 307.325 355.412C325.039 345.126 324.944 328.44 307.116 318.145Z" fill="#172B35"/>
<path d="M374.838 270.392C367.714 266.375 356.269 266.498 349.278 270.658C342.288 274.818 342.392 281.447 349.516 285.455C356.64 289.472 368.085 289.349 375.076 285.189C382.066 281.029 381.962 274.4 374.838 270.392Z" fill="#172B35"/>
<path d="M221.689 119.096H219.561H217.434C217.434 137.397 218.098 197.628 218.098 197.628C218.098 197.846 218.241 198.064 218.526 198.226C219.096 198.558 220.027 198.558 220.597 198.226C220.881 198.064 221.024 197.846 221.024 197.628C221.024 197.628 221.689 137.397 221.689 119.096Z" fill="#455A64"/>
<path d="M213.103 110.852H208.848C205.191 129.779 202.816 189.383 202.816 189.383C202.816 189.602 202.959 189.82 203.244 189.982C203.814 190.314 204.745 190.314 205.314 189.982C205.599 189.82 205.742 189.602 205.742 189.383C205.732 189.374 209.769 129.513 213.103 110.852Z" fill="#455A64"/>
<path d="M226.355 114.246H230.611C234.267 133.174 236.642 192.778 236.642 192.778C236.642 192.996 236.5 193.215 236.215 193.376C235.645 193.709 234.714 193.709 234.144 193.376C233.859 193.215 233.717 192.996 233.717 192.778C233.717 192.768 229.68 132.908 226.355 114.246Z" fill="#455A64"/>
<path d="M242.451 110.301H242.005C241.141 107.813 239.041 105.429 235.698 103.501C226.732 98.3252 212.228 98.3252 203.319 103.501C199.994 105.429 197.924 107.813 197.088 110.301H196.67V112.875C196.689 116.265 198.94 119.665 203.433 122.248C212.399 127.424 226.903 127.424 235.812 122.248C240.267 119.656 242.48 116.265 242.461 112.875V110.301H242.451Z" fill="#75868E"/>
<path d="M235.699 100.927C244.665 106.103 244.712 114.498 235.803 119.684C226.894 124.86 212.39 124.86 203.424 119.684C194.457 114.508 194.41 106.112 203.319 100.927C212.229 95.7509 226.723 95.7509 235.699 100.927Z" fill="#51626A"/>
<path d="M230.797 93.2715H219.561H208.324C208.324 100.651 211.772 106.909 212.836 108.771C212.874 108.856 212.931 108.942 212.978 109.018C212.997 109.046 213.016 109.084 213.026 109.103C213.368 109.626 213.9 110.11 214.622 110.528C217.367 112.114 221.793 112.114 224.519 110.528C225.431 109.996 226.029 109.36 226.323 108.676C227.435 106.729 230.797 100.556 230.797 93.2715Z" fill="#455A64"/>
<path d="M227.472 88.6655C231.87 91.2107 231.899 95.323 227.52 97.8682C223.151 100.413 216.037 100.413 211.629 97.8682C207.232 95.323 207.203 91.2107 211.582 88.6655C215.961 86.1297 223.075 86.1297 227.472 88.6655Z" fill="#75868E"/>
<path d="M218.345 90.3648C218.317 85.5783 217.205 80.8012 215.106 76.4895C214.441 75.1314 213.672 73.7733 213.567 72.2633C213.463 70.7627 214.289 69.0533 215.771 68.7588C216.93 68.5214 218.117 69.2337 218.801 70.2119C219.475 71.1806 219.751 72.3678 219.998 73.5264C221.109 78.7213 222.03 84.0682 221.337 89.3391C221.261 89.909 221.213 90.6023 220.976 91.1246C220.739 91.647 220.264 92.1028 219.694 92.1503C219.314 92.1788 218.934 92.0268 218.677 91.7514C218.421 91.476 218.345 90.7447 218.345 90.3648Z" fill="#51626A"/>
<path d="M219.579 90.7928C219.57 90.7928 219.57 90.7928 219.56 90.7928C219.456 90.7833 219.38 90.6978 219.389 90.5933C219.959 83.8693 218.8 77.0599 216.046 70.8963C216.008 70.8013 216.046 70.6968 216.141 70.6493C216.236 70.6113 216.34 70.6493 216.388 70.7443C219.161 76.9649 220.329 83.8409 219.76 90.6218C219.75 90.7263 219.674 90.7928 219.579 90.7928Z" fill="white"/>
<path d="M207.402 82.5399C206.414 81.9321 205.284 81.2672 204.98 80.1466C204.714 79.1399 205.256 78.0382 206.12 77.4684C206.984 76.8986 208.115 76.8226 209.121 77.06C210.128 77.3069 211.04 77.8483 211.885 78.4466C213.32 79.4723 214.602 80.7069 215.694 82.0935C216.995 83.746 218.021 85.5979 218.743 87.5734C219.199 88.846 219.626 90.1661 219.835 91.5242C219.997 92.5878 220.32 94.3543 219.218 95.0571C218.743 95.361 218.097 95.3135 217.603 95.0286C217.109 94.7532 216.758 94.2688 216.511 93.7655C216.264 93.2621 216.112 92.7018 215.932 92.17C215.21 90.0236 214.051 88.2002 212.512 86.5667C211.021 84.9806 209.245 83.6795 207.402 82.5399Z" fill="#51626A"/>
<path d="M218.744 93.7662C218.62 93.7947 218.506 93.7187 218.478 93.5953C217.139 87.2607 212.693 81.5529 206.881 78.7038C206.767 78.6468 206.719 78.5138 206.776 78.3999C206.833 78.2859 206.966 78.2479 207.08 78.2954C213.016 81.2015 217.557 87.0328 218.924 93.5003C218.943 93.6238 218.867 93.7377 218.744 93.7662Z" fill="white"/>
<path d="M229.39 80.2496C230.198 79.4043 231.119 78.4831 231.119 77.315C231.128 76.2798 230.321 75.3396 229.333 75.0072C228.345 74.6748 227.244 74.8837 226.332 75.3775C225.42 75.8714 224.67 76.6217 224.005 77.4194C222.874 78.768 221.944 80.2876 221.241 81.9116C220.405 83.8395 219.873 85.9004 219.683 87.9897C219.56 89.3383 219.484 90.7249 219.626 92.083C219.74 93.1562 219.873 94.9512 221.117 95.3405C221.659 95.5115 222.267 95.3025 222.675 94.9037C223.083 94.5048 223.302 93.9539 223.416 93.4031C223.53 92.8428 223.53 92.273 223.568 91.7126C223.72 89.4523 224.385 87.3914 225.458 85.4255C226.512 83.5261 227.899 81.8166 229.39 80.2496Z" fill="#51626A"/>
<path d="M221.27 93.9819C221.394 93.9724 221.489 93.868 221.489 93.7445C221.175 87.2769 224.034 80.6289 228.935 76.4027C229.03 76.3172 229.04 76.1843 228.954 76.0893C228.869 75.9943 228.736 75.9848 228.641 76.0703C223.635 80.3915 220.719 87.1725 221.033 93.773C221.042 93.8869 221.147 93.9819 221.27 93.9819Z" fill="white"/>
<path d="M343.124 48.8426L343.057 73.1837L340.104 74.8932L340.189 47.1426L343.124 48.8426Z" fill="#9AADB6"/>
<path d="M374.905 91.5701L374.895 94.9795L340.104 74.8931L343.057 73.1836L374.905 91.5701Z" fill="#9AADB6"/>
<path d="M336.531 76.9352L378.447 101.134L378.551 65.1968L336.636 40.998L336.531 76.9352ZM340.103 74.8933L340.179 47.1427L343.123 48.8427L374.971 67.2292L374.904 91.5703L374.895 94.9798L340.103 74.8933Z" fill="#51626A"/>
<path d="M336.637 40.9985L339.581 39.2891L381.497 63.4878L378.552 65.1973L336.637 40.9985Z" fill="#5C6D75"/>
<path d="M381.496 63.4883L381.392 99.416L378.447 101.135L378.552 65.1978L381.496 63.4883Z" fill="#5C6D75"/>
<path d="M353.249 58.084L344.558 64.9219L344.539 71.5984L373.423 88.2754L373.442 81.5989L367.943 70.6677L362.994 74.5045L364.742 79.9369L362.206 75.1124L353.249 58.084Z" fill="#51626A"/>
<path d="M362.727 61.4558C361.369 60.6676 360.258 61.3039 360.258 62.8614C360.258 64.419 361.35 66.3279 362.708 67.1066C364.067 67.8949 365.178 67.2586 365.178 65.7011C365.187 64.1435 364.095 62.2346 362.727 61.4558Z" fill="#5C6D75"/>
<path d="M291.311 19.0694L291.245 43.4106L288.291 45.1201L288.367 17.3789L291.311 19.0694Z" fill="#9AADB6"/>
<path d="M323.083 61.7966L323.074 65.2061L288.291 45.1196L291.245 43.4102L323.083 61.7966Z" fill="#5C6D75"/>
<path d="M284.719 47.1618L326.634 71.3605L326.739 35.4233L284.823 11.2246L284.719 47.1618ZM288.29 45.1199L288.366 17.3693L291.311 19.0692L323.158 37.4557L323.092 61.7969L323.082 65.2064L288.29 45.1199Z" fill="#51626A"/>
<path d="M284.814 11.2251L287.768 9.51562L329.684 33.7143L326.73 35.4238L284.814 11.2251Z" fill="#9AADB6"/>
<path d="M329.684 33.7148L329.579 69.6425L326.635 71.3615L326.73 35.4243L329.684 33.7148Z" fill="#9AADB6"/>
<path d="M301.427 28.3105L292.746 35.1485L292.727 41.8345L321.611 58.5115L321.63 51.8255L316.121 40.8943L311.182 44.7311L312.929 50.1635L310.393 45.3389L301.427 28.3105Z" fill="#5C6D75"/>
<path d="M310.915 31.6824C309.557 30.8941 308.445 31.5305 308.445 33.088C308.445 34.6455 309.538 36.5544 310.896 37.3332C312.254 38.1215 313.365 37.4852 313.365 35.9276C313.375 34.3701 312.273 32.4707 310.915 31.6824Z" fill="#51626A"/>
<path d="M374.088 246.195L356.953 246.879L339.809 246.556C339.191 258.143 341.575 269.91 344.757 275.636H344.767C345.337 276.9 346.476 278.087 348.196 279.055C353.287 281.924 361.455 281.838 366.451 278.865C368.18 277.83 369.291 276.586 369.804 275.285C372.834 269.463 374.943 257.706 374.088 246.195Z" fill="#455A64"/>
<path d="M368.95 239.234C375.703 243.043 375.807 249.33 369.177 253.271C362.548 257.222 351.691 257.336 344.938 253.528C338.185 249.719 338.08 243.432 344.71 239.491C351.34 235.54 362.196 235.426 368.95 239.234Z" fill="#677D87"/>
<path d="M366.308 240.801C371.58 243.774 371.656 248.674 366.488 251.751C361.312 254.828 352.849 254.923 347.578 251.951C342.306 248.978 342.23 244.078 347.397 241.001C352.574 237.923 361.037 237.829 366.308 240.801Z" fill="#56666F"/>
<path d="M384.356 172.943C345.86 186.002 345.784 211.844 354.684 230.154C356.916 233.858 363.584 235.786 369.131 212.841L358.996 214.246L370.755 208.13L373.728 198.918L363.878 199.754L376.34 194.359C380.813 180.361 384.356 172.943 384.356 172.943Z" fill="#5BBFA8"/>
<path d="M373.499 179.516C353.287 195.186 351.634 212.936 357.59 231.38C355.386 215.111 353.011 198.652 373.499 179.516Z" fill="white"/>
<path d="M319.207 199.877C357.342 204.834 362.215 228.796 357.361 247.429C355.975 251.275 350.152 254.305 340.739 234.048L350.399 233.468L338.355 229.983L333.882 221.986L343.171 220.932L330.614 218.244C323.871 206.098 319.207 199.877 319.207 199.877Z" fill="#5BBFA8"/>
<path d="M330.5 203.961C352.156 214.75 356.991 230.904 354.891 249.11C353.913 233.611 353.058 217.912 330.5 203.961Z" fill="white"/>
<path d="M395.877 208.064C360.962 209.005 354.332 230.193 356.992 247.487C357.885 251.096 362.871 254.373 373.253 236.945L364.581 235.53L375.789 233.498L380.566 226.688L372.265 224.874L383.862 223.611C391.081 213.259 395.877 208.064 395.877 208.064Z" fill="#5BBFA8"/>
<path d="M385.296 210.715C364.722 218.446 358.862 232.596 359.062 249.245C361.379 235.322 363.611 221.219 385.296 210.715Z" fill="white"/>
<path d="M171.539 8.32934C170.722 5.41372 164.814 -0.113616 158.944 0.00984653C158.735 0.00984653 157.681 0.114315 157.291 0.332749L43.2177 65.2172C41.28 66.3189 39.7793 67.9809 38.8295 69.9183C38.1076 71.3904 37.6992 73.0144 37.6992 74.7049V321.431C37.6992 327.718 44.9464 333.711 51.7566 330.833C51.7756 330.824 51.7851 330.805 51.8041 330.805C51.9465 330.748 52.0985 330.71 52.241 330.624L166.324 265.626C169.734 263.689 171.833 260.07 171.833 256.148V9.51649C171.833 9.07962 171.719 8.68074 171.539 8.32934Z" fill="#213E4C"/>
<path opacity="0.3" d="M171.539 8.32934C170.722 5.41372 164.814 -0.113616 158.944 0.00984653C158.735 0.00984653 157.681 0.114315 157.291 0.332749L43.2177 65.2172C41.28 66.3189 39.7793 67.9809 38.8295 69.9183C38.1076 71.3904 37.6992 73.0144 37.6992 74.7049V321.431C37.6992 327.718 44.9464 333.711 51.7566 330.833C51.7756 330.824 51.7851 330.805 51.8041 330.805C51.9465 330.748 52.0985 330.71 52.241 330.624L166.324 265.626C169.734 263.689 171.833 260.07 171.833 256.148V9.51649C171.833 9.07962 171.719 8.68074 171.539 8.32934Z" fill="black"/>
<path d="M53.6191 100.784C53.6191 98.8179 54.6734 97.0134 56.3736 96.0447L162.298 35.7853C164.112 34.7502 166.372 36.0608 166.372 38.1596V237.115C166.372 239.072 165.318 240.886 163.618 241.854L57.7034 302.199C55.8892 303.234 53.6286 301.924 53.6286 299.825V100.784H53.6191Z" fill="#455A64"/>
<path opacity="0.3" d="M37.709 74.7045V321.431C37.709 327.718 44.9561 333.711 51.7663 330.833C51.7853 330.823 51.7948 330.805 51.8138 330.805C50.0852 331.431 48.176 330.187 48.176 328.259V81.5235C48.176 79.3391 48.8504 77.2593 50.0187 75.5023L38.8488 69.918C38.1174 71.39 37.709 73.014 37.709 74.7045Z" fill="black"/>
<path opacity="0.1" d="M158.954 -0.000217761C158.745 -0.000217761 157.691 0.104251 157.301 0.322685L43.2183 65.2167C41.2806 66.3183 39.7799 67.9803 38.8301 69.9177L50 75.5021C50.9308 74.106 52.1656 72.8998 53.6758 72.0451L167.749 7.15113C169.184 6.33438 170.884 6.98968 171.539 8.32878L171.549 8.31928C170.722 5.41315 164.824 -0.114183 158.954 -0.000217761Z" fill="white"/>
<path d="M124.058 47.8846C124.856 47.4192 125.521 47.7801 125.53 48.7014C125.53 49.6226 124.875 50.7622 124.067 51.2276L101.69 64.1437C100.892 64.6091 100.246 64.2197 100.236 63.2985C100.236 62.3772 100.873 61.2661 101.68 60.8007L124.058 47.8846Z" fill="#263238"/>
<path d="M95.9334 64.1248C96.7313 63.6594 97.3772 64.0298 97.3867 64.9511C97.3867 65.8723 96.7503 67.0024 95.9429 67.4678C95.1451 67.9332 94.4802 67.5533 94.4707 66.6321C94.4707 65.7108 95.1261 64.5902 95.9334 64.1248Z" fill="#263238"/>
<path d="M110.256 46.0032C111.861 45.082 113.153 45.8133 113.153 47.6557C113.162 49.4982 111.87 51.7585 110.275 52.6797C108.67 53.601 107.349 52.8507 107.34 51.0082C107.34 49.1753 108.651 46.934 110.256 46.0032Z" fill="#263238"/>
<path d="M110.266 278.283C113.524 276.403 116.155 277.904 116.165 281.645C116.174 285.387 113.562 290.003 110.304 291.883C107.047 293.764 104.34 292.225 104.33 288.483C104.321 284.732 107.009 280.164 110.266 278.283Z" fill="#263238"/>
<path d="M187.922 48.4833L187.941 48.4738L181.777 45.2068V45.2353C180.96 44.6275 179.82 44.4565 178.813 45.0358L72.8892 105.295C71.1796 106.264 70.1348 108.078 70.1348 110.034V119.161V309.085C70.1348 310.291 70.8946 311.222 71.8824 311.611L71.8634 311.621L78.0753 314.954C78.0848 314.964 78.0943 314.964 78.1038 314.964C78.1323 314.983 78.1703 314.992 78.1988 315.002C78.9776 315.41 79.9369 315.458 80.8013 314.964L186.725 254.609C188.426 253.641 189.48 251.827 189.48 249.87V57.876V50.9241C189.48 49.8034 188.815 48.9202 187.922 48.4833Z" fill="#5BBFA8"/>
<path opacity="0.3" d="M189.48 57.876V50.9241C189.48 49.7939 188.815 48.9107 187.922 48.4833L187.941 48.4738L181.777 45.2068V45.2353C180.96 44.6275 179.82 44.4565 178.813 45.0358L72.8892 105.295C71.1796 106.264 70.1348 108.078 70.1348 110.034V119.161L76.7265 122.969L189.48 57.876Z" fill="white"/>
<path opacity="0.5" d="M189.965 47.9423L189.984 47.9328L183.82 44.6658V44.6943C183.003 44.0864 181.863 43.9155 180.856 44.4948L74.9322 104.745C73.2225 105.713 72.1777 107.527 72.1777 109.484V308.534C72.1777 309.741 72.9376 310.671 73.9254 311.061L73.9064 311.07L80.1182 314.404C80.1277 314.413 80.1372 314.413 80.1467 314.413C80.1752 314.432 80.2132 314.442 80.2417 314.451C81.0206 314.859 81.9799 314.907 82.8442 314.413L188.768 254.059C190.469 253.09 191.523 251.276 191.523 249.32V50.383C191.523 49.2529 190.858 48.3697 189.965 47.9423Z" fill="#5BBFA8"/>
<path opacity="0.3" d="M70.1348 110.035V309.086C70.1348 310.292 70.8946 311.223 71.8824 311.612L71.8634 311.622L78.0753 314.955C77.2869 314.49 76.7265 313.644 76.7265 312.6V113.559C76.7265 112.818 76.8785 112.096 77.1634 111.431L70.6857 107.689C70.3247 108.411 70.1348 109.209 70.1348 110.035Z" fill="#BA68C8"/>
<path opacity="0.4" d="M181.776 45.2166V45.245C180.96 44.6372 179.82 44.4663 178.813 45.0456L72.8889 105.295C71.901 105.856 71.1507 106.701 70.6758 107.689L77.1536 111.431C77.6095 110.348 78.4168 109.417 79.4806 108.819L185.405 48.5595C186.241 48.0847 187.171 48.1227 187.931 48.4931L187.95 48.4836L181.776 45.2166Z" fill="white"/>
<path d="M109.001 111.925C122.973 103.862 134.342 110.329 134.38 126.379C134.428 142.43 123.134 161.984 109.163 170.047C95.1907 178.11 83.8308 171.633 83.7834 155.583C83.7359 139.533 95.0292 119.988 109.001 111.925Z" fill="#213E4C"/>
<path d="M121.796 126.892C123.154 125.914 124.123 124.423 124.465 122.789C124.807 121.156 124.522 119.399 123.676 117.955C124.408 117.604 125.12 117.015 125.462 116.274C125.785 115.562 125.623 114.65 125.073 114.09C124.522 113.53 123.629 113.349 122.897 113.644C123.353 112.532 122.831 111.022 121.796 110.414C120.76 109.807 119.298 110.082 118.557 111.013C118.604 110.253 118.082 109.512 117.351 109.275C116.629 109.037 115.821 109.17 115.099 109.417C114.378 109.664 113.694 110.025 112.962 110.253C111.728 110.642 110.417 110.652 109.135 110.737C107.843 110.832 106.513 111.022 105.43 111.725C104.347 112.428 103.388 114.061 103.977 115.476C103.616 115.011 103.027 114.679 102.438 114.66C101.849 114.641 101.261 114.888 100.862 115.324C101.669 115.828 102.448 116.36 103.255 116.863C102.448 116.502 101.232 117.072 100.795 117.841C100.358 118.611 100.339 119.551 100.358 120.434C100.453 123.815 101.071 127.167 102.144 130.377C102.695 132.03 103.987 134.119 105.554 134.879L121.796 126.892Z" fill="#37474F"/>
<path d="M119.164 139.58L122.992 142.847L125.015 154.453C126.658 151.974 128.14 149.353 129.403 146.665C127.646 142.239 126.259 139.58 119.164 139.58Z" fill="#EBEBEB"/>
<path d="M109.163 170.047C115.726 166.258 121.701 159.932 126.175 152.629C125.804 146.352 124.883 139.58 119.155 139.58L102.163 139.694L98.6962 140.064L97.0625 173.494C100.672 173.665 104.785 172.573 109.163 170.047Z" fill="#5BBFA8"/>
<path d="M116.38 141.841C117.967 146.894 116.969 153.941 116.38 157.122C112.353 151.586 108.592 146.039 107.414 143.864L113.028 141.139L116.38 141.841Z" fill="#EBEBEB"/>
<path d="M114.045 146.485L115.432 146.152C115.432 146.152 116.457 148.755 117.122 151.566C116.951 153.807 116.638 155.801 116.391 157.112C115.603 156.029 114.824 154.937 114.073 153.883C114.225 152.069 114.377 149.068 114.045 146.485Z" fill="#455A64"/>
<path opacity="0.2" d="M114.073 146.779C114.064 146.684 114.054 146.58 114.045 146.485L115.432 146.152C115.432 146.152 115.46 146.228 115.508 146.361C115.28 146.561 115.014 146.713 114.719 146.779C114.51 146.817 114.292 146.808 114.073 146.779Z" fill="black"/>
<path d="M113.294 142.855L112.202 142.152L109.656 143.539C110.768 144.565 112.658 144.726 112.658 144.726L113.294 142.855Z" fill="#455A64"/>
<path d="M114.975 142.581L115.307 141.84L116.589 142.638C116.342 143.473 115.753 143.853 115.753 143.853L114.975 142.581Z" fill="#455A64"/>
<path opacity="0.2" d="M113.294 142.855L112.202 142.152L109.656 143.539C110.768 144.565 112.658 144.726 112.658 144.726L113.294 142.855Z" fill="black"/>
<path opacity="0.2" d="M114.975 142.581L115.307 141.84L116.589 142.638C116.342 143.473 115.753 143.853 115.753 143.853L114.975 142.581Z" fill="black"/>
<path d="M112.658 144.727C112.763 144.081 112.981 143.426 113.295 142.856C113.855 142.77 114.415 142.675 114.976 142.59C115.28 142.979 115.546 143.416 115.755 143.872C115.84 145.069 115.422 146.161 115.422 146.161C114.795 146.512 114.035 146.493 114.035 146.493C113.038 145.857 112.658 144.727 112.658 144.727Z" fill="#455A64"/>
<path d="M113.883 142.269C111.214 142.222 109.59 144.349 107.149 145.071L102.172 139.705L104.1 136.837C104.489 136.267 104.983 135.782 105.572 135.412L105.591 136.447C105.601 137.065 105.933 137.625 106.475 137.938L113.883 142.269Z" fill="#E0E0E0"/>
<path d="M113.883 142.269C115.365 141.804 117.578 143.665 117.578 143.665C116.799 139.372 114.462 137.691 113.883 137.691V142.269Z" fill="#E0E0E0"/>
<path d="M98.7056 140.064L96.3975 140.435C93.6146 140.881 91.4205 143.018 90.8506 145.772C88.723 155.991 89.3499 165.327 89.3499 165.327L99.8644 160.483C100.976 152.268 103.141 145.478 98.7056 140.064Z" fill="#EBEBEB"/>
<path d="M99.7594 164.141L99.8069 163.229C99.8164 163.058 99.8924 162.906 100.016 162.792C100.149 162.678 100.225 162.507 100.225 162.327V160.807C100.225 160.389 99.8829 160.066 99.465 160.066C94.7063 160.133 90.0807 162.393 88.8175 165.062C88.3046 166.173 88.8175 167.636 88.8175 167.636C87.9911 168.718 88.39 169.269 88.8175 170.038C89.2449 170.456 89.7008 170.827 90.1757 171.169C93.2626 166.202 99.7594 164.141 99.7594 164.141Z" fill="#E0E0E0"/>
<path opacity="0.2" d="M94.829 163.076C92.5684 163.94 90.0799 166.03 88.8071 167.625C88.8071 167.625 88.6837 167.264 88.6172 166.761C89.4055 165.773 91.1247 163.959 94.829 163.076Z" fill="black"/>
<path opacity="0.2" d="M100.187 162.508C100.149 162.612 100.092 162.717 100.007 162.793C99.8831 162.907 99.8071 163.059 99.7976 163.23V163.306C96.4922 163.809 93.3673 165.385 91.0117 167.76C93.2153 164.559 98.0499 162.926 100.187 162.508Z" fill="black"/>
<path d="M109.163 170.047C113.039 167.806 116.705 164.681 119.991 160.996C113.893 161.034 105.383 161.366 99.8075 163.294L99.7695 164.13C99.7695 164.13 93.2727 166.191 90.1953 171.149C94.8304 174.511 101.612 174.397 109.163 170.047Z" fill="#FFA8A7"/>
<path opacity="0.2" d="M100.225 164.168L100.33 163.133C100.149 163.19 99.9783 163.247 99.7979 163.304L99.7599 164.14C99.7599 164.14 97.7462 164.776 95.4192 166.2C95.0393 166.694 94.6688 167.34 94.4219 168.138C95.6946 166.333 97.0909 165.621 99.7979 164.918C102.267 165.298 106.561 167.112 110.93 168.936C111.348 168.66 111.766 168.375 112.174 168.081C106.931 166.257 101.584 164.253 100.225 164.168Z" fill="black"/>
<path d="M108.641 135.602L108.565 135.564C107.444 134.975 106.609 133.93 106.333 132.696C106.191 132.088 106.067 131.47 105.972 130.853C105.887 130.293 105.469 130.844 105.469 130.844C105.469 130.844 105.497 132.211 105.535 133.835C105.554 134.69 105.573 135.621 105.592 136.466C105.602 137.083 105.934 137.644 106.476 137.957L113.894 142.278V138.565L113.903 137.007C112.061 136.855 110.18 136.409 108.641 135.602Z" fill="#FFA8A7"/>
<path d="M106.836 134.661V134.652L106.845 134.661H106.836Z" fill="#FFA8A7"/>
<path opacity="0.2" d="M107.586 135.497C107.149 134.937 106.835 134.281 106.674 133.598C107.082 134.424 107.738 135.127 108.573 135.564C108.602 135.573 108.621 135.592 108.649 135.602C110.188 136.409 112.069 136.865 113.902 136.998L113.892 138.346C112.838 138.232 111.784 138.052 110.787 137.691C109.552 137.245 108.393 136.523 107.586 135.497Z" fill="black"/>
<path d="M122.251 118.734C122.858 123.312 122.554 128.013 121.358 132.477C121.101 133.455 120.788 134.433 120.265 135.297C119.743 136.162 118.983 136.921 118.033 137.273C116.865 137.71 115.573 137.501 114.348 137.282C112.106 136.883 109.808 136.475 107.861 135.288C105.914 134.11 104.365 131.983 104.555 129.713C103.425 130.368 101.981 130.539 100.832 129.922C99.6828 129.305 98.8754 128.07 98.79 126.769C98.7045 125.496 99.4358 124.081 100.69 123.834C101.449 123.682 102.247 123.986 102.855 124.471C103.463 124.955 103.919 125.601 104.365 126.237C104.574 126.541 104.802 126.854 105.116 127.044C105.429 127.234 105.876 127.272 106.161 127.035C106.465 126.769 106.474 126.304 106.455 125.905L106.322 123.027C106.303 122.571 106.559 122.163 106.958 121.954C107.547 121.659 107.994 121.109 108.25 120.472C108.469 119.921 108.564 119.333 108.611 118.744C108.649 118.269 109.134 117.965 109.58 118.136C113.455 119.684 118.271 119.751 122.251 118.734Z" fill="#FFA8A7"/>
<path d="M115.923 125.705L118.507 130.064L115.42 130.644L115.923 125.705Z" fill="#F28F8F"/>
<path d="M112.447 132.145C113.226 132.524 114.005 132.904 114.793 133.284C114.451 133.816 113.597 134.044 113.017 133.788C112.438 133.522 112.276 132.752 112.447 132.145Z" fill="#F28F8F"/>
<path opacity="0.3" d="M112.447 132.145C113.226 132.524 114.005 132.904 114.793 133.284C114.451 133.816 113.597 134.044 113.017 133.788C112.438 133.522 112.276 132.752 112.447 132.145Z" fill="black"/>
<path d="M113.834 133.863C113.549 133.911 113.264 133.892 113.017 133.787C112.561 133.588 112.371 133.066 112.39 132.553C112.722 132.553 113.055 132.667 113.311 132.876C113.615 133.113 113.796 133.483 113.834 133.863Z" fill="#F28F8F"/>
<path d="M111.459 125.877C111.412 126.361 111.763 126.798 112.248 126.845C112.732 126.893 113.169 126.541 113.217 126.057C113.264 125.573 112.913 125.136 112.428 125.088C111.934 125.041 111.507 125.392 111.459 125.877Z" fill="#263238"/>
<path d="M118.887 126.343C118.84 126.827 119.191 127.264 119.675 127.312C120.16 127.359 120.597 127.008 120.644 126.523C120.692 126.039 120.34 125.602 119.856 125.555C119.372 125.498 118.935 125.859 118.887 126.343Z" fill="#263238"/>
<path d="M120.094 122.923C120.702 123.436 121.31 123.958 121.908 124.471C122.145 124.025 122.022 123.407 121.67 123.046C121.31 122.685 120.54 122.685 120.094 122.923Z" fill="#263238"/>
<path d="M112.562 122.049C111.868 122.429 111.166 122.819 110.472 123.199C110.33 122.714 110.577 122.135 110.995 121.85C111.413 121.584 112.172 121.727 112.562 122.049Z" fill="#263238"/>
<path d="M155.068 120.311L155.077 122.761L144.097 129.105L144.088 126.645L155.068 120.311Z" fill="white"/>
<path d="M160.854 132.049L160.863 134.499L144.146 144.148L144.137 141.698L160.854 132.049Z" fill="white"/>
<path d="M166.324 123.881L166.334 126.331L144.127 139.143L144.117 136.692L166.324 123.881Z" fill="white"/>
<path d="M174.976 103.812L174.985 106.263L144.088 124.098L144.078 121.648L174.976 103.812Z" fill="white"/>
<path d="M181.094 95.2285V97.6788L144.07 119.057L144.061 116.597L181.094 95.2285Z" fill="white"/>
<path d="M173.381 90.3652L173.4 95.2753L144.051 112.218L144.041 107.299L173.381 90.3652Z" fill="white"/>
<path d="M82.7109 189.117V306.996L126.175 282.227V164.035L82.7109 189.117Z" fill="#A1CDC8"/>
<path d="M183.487 130.977L128.967 162.431V280.633L183.487 249.577V130.977Z" fill="#D9F9FF"/>
<g opacity="0.7">
<path d="M183.487 130.977L128.967 162.431V280.633L183.487 249.577V130.977Z" fill="white"/>
</g>
<path d="M162.143 233.754V235.872L136.355 250.763L136.346 248.645L162.143 233.754Z" fill="#455A64"/>
<path d="M176.278 221.664L176.287 223.791L136.347 246.851L136.338 244.723L176.278 221.664Z" fill="#455A64"/>
<path d="M155.106 229.975V232.092L136.338 242.929L136.328 240.811L155.106 229.975Z" fill="#455A64"/>
<path d="M176.258 213.838L176.268 215.956L136.328 239.015L136.318 236.897L176.258 213.838Z" fill="#455A64"/>
<path d="M176.249 209.916V212.043L136.309 235.102V232.975L176.249 209.916Z" fill="#455A64"/>
<path d="M145.92 217.895V220.022L136.289 225.587L136.279 223.46L145.92 217.895Z" fill="#BA68C8"/>
<path d="M176.211 196.488V198.606L136.271 221.665V219.547L176.211 196.488Z" fill="#BA68C8"/>
<path d="M176.202 192.574V194.692L136.262 217.751V215.633L176.202 192.574Z" fill="#BA68C8"/>
<path d="M176.182 188.662L176.192 190.78L136.252 213.839L136.242 211.721L176.182 188.662Z" fill="#BA68C8"/>
<path d="M162.01 187.371V189.489L136.223 204.371V202.253L162.01 187.371Z" fill="#455A64"/>
<path d="M176.145 175.281L176.155 177.399L136.215 200.458L136.205 198.331L176.145 175.281Z" fill="#455A64"/>
<path d="M176.135 171.369L176.145 173.478L136.205 196.537L136.195 194.419L176.135 171.369Z" fill="#455A64"/>
<path d="M176.116 163.533L176.125 165.651L136.185 188.71L136.176 186.583L176.116 163.533Z" fill="#455A64"/>
<path d="M176.126 167.445L176.135 169.563L136.195 192.622L136.186 190.504L176.126 167.445Z" fill="#455A64"/>
<path d="M170.133 149.838V151.956L136.138 171.577L136.129 169.468L170.133 149.838Z" fill="#BA68C8"/>
<path d="M172.546 156.277L172.555 158.405L136.158 179.412L136.148 177.295L172.546 156.277Z" fill="#BA68C8"/>
<path d="M160.093 159.553V161.671L136.148 175.498L136.139 173.381L160.093 159.553Z" fill="#BA68C8"/>
<path d="M176.059 142.496V144.614L136.119 167.664V165.546L176.059 142.496Z" fill="#BA68C8"/>
<path d="M176.335 241.4L176.344 243.518L136.404 266.577L136.395 264.459L176.335 241.4Z" fill="#BA68C8"/>
<path d="M155.182 257.535V259.653L136.414 270.489L136.404 268.371L155.182 257.535Z" fill="#BA68C8"/>
<path d="M166.276 243.289L166.285 245.407L136.394 262.663L136.385 260.545L166.276 243.289Z" fill="#BA68C8"/>
<path d="M176.315 233.564V235.692L136.384 258.751L136.375 256.624L176.315 233.564Z" fill="#BA68C8"/>
<g opacity="0.4">
<path d="M145.92 217.895V220.022L136.289 225.587L136.279 223.46L145.92 217.895Z" fill="white"/>
<path d="M176.211 196.488V198.606L136.271 221.665V219.547L176.211 196.488Z" fill="#5BBFA8"/>
<path d="M176.202 192.574V194.692L136.262 217.751V215.633L176.202 192.574Z" fill="#5BBFA8"/>
<path d="M176.182 188.662L176.192 190.78L136.252 213.839L136.242 211.721L176.182 188.662Z" fill="#5BBFA8"/>
</g>
<g opacity="0.4">
<path d="M170.133 149.838V151.956L136.138 171.577L136.129 169.468L170.133 149.838Z" fill="#5BBFA8"/>
<path d="M172.546 156.277L172.555 158.405L136.158 179.412L136.148 177.295L172.546 156.277Z" fill="#5BBFA8"/>
<path d="M160.093 159.553V161.671L136.148 175.498L136.139 173.381L160.093 159.553Z" fill="#5BBFA8"/>
<path d="M176.059 142.496V144.614L136.119 167.664V165.546L176.059 142.496Z" fill="#5BBFA8"/>
</g>
<g opacity="0.4">
<path d="M176.335 241.4L176.344 243.518L136.404 266.577L136.395 264.459L176.335 241.4Z" fill="#5BBFA8"/>
<path d="M155.182 257.535V259.653L136.414 270.489L136.404 268.371L155.182 257.535Z" fill="#5BBFA8"/>
<path d="M166.276 243.289L166.285 245.407L136.394 262.663L136.385 260.545L166.276 243.289Z" fill="#5BBFA8"/>
<path d="M176.315 233.564V235.692L136.384 258.751L136.375 256.624L176.315 233.564Z" fill="#5BBFA8"/>
</g>
<path d="M115.166 179.838L115.175 183.922L88.1052 199.516L88.0957 195.432L115.166 179.838Z" fill="#213E4C"/>
<path d="M111.414 189.791L111.424 191.823L88.1247 205.243L88.1152 203.21L111.414 189.791Z" fill="white"/>
<path d="M122.127 264.096L122.136 268.17L112.144 273.944L112.135 269.87L122.127 264.096Z" fill="#213E4C"/>
<path d="M102.761 231.408L102.77 235.482L88.2378 243.849L88.2188 239.775L102.761 231.408Z" fill="#213E4C"/>
<path d="M111.623 261.996V264.038L88.3337 277.457L88.3242 275.416L111.623 261.996Z" fill="white"/>
<path d="M115.384 256.053V258.095L88.3145 273.689V271.657L115.384 256.053Z" fill="white"/>
<path d="M121.909 248.502L121.919 250.553L88.3047 269.928V267.876L121.909 248.502Z" fill="white"/>
<path d="M115.347 244.514L115.366 248.588L88.2963 264.182L88.2773 260.108L115.347 244.514Z" fill="#213E4C"/>
<path d="M117.759 234.312L117.769 236.345L88.2578 253.354V251.312L117.759 234.312Z" fill="white"/>
<path d="M112.269 233.705L112.279 235.747L88.248 249.584V247.542L112.269 233.705Z" fill="white"/>
<path d="M121.833 220.4L121.842 224.475L105.629 233.839L105.619 229.755L121.833 220.4Z" fill="#213E4C"/>
<path d="M113.856 212.441L113.865 214.483L88.1914 229.27V227.228L113.856 212.441Z" fill="white"/>
<path d="M116.38 214.758L116.39 216.8L88.1992 233.04V230.998L116.38 214.758Z" fill="white"/>
<path d="M119.571 205.365V207.407L88.1794 225.499L88.1699 223.457L119.571 205.365Z" fill="white"/>
<path d="M115.222 200.086L115.232 204.17L88.1618 219.764L88.1523 215.69L115.222 200.086Z" fill="#213E4C"/>
<path d="M103.643 198.053V200.085L88.1328 209.012V206.971L103.643 198.053Z" fill="white"/>
<path d="M118.023 278.029L118.032 280.062L88.3789 297.147V295.115L118.023 278.029Z" fill="white"/>
<path d="M113.418 276.908V278.95L88.3711 293.386V291.334L113.418 276.908Z" fill="white"/>
<path d="M108.298 272.074L108.307 276.158L88.3608 287.64L88.3418 283.566L108.298 272.074Z" fill="#213E4C"/>
<path d="M245.91 331.564C247.601 333.34 250.175 334.099 252.625 334.033C255.085 333.966 257.46 333.178 259.73 332.238C262 331.307 264.859 328.686 267.31 328.734C269.58 328.781 272.258 328.487 274.5 328.24C274.718 323.282 273.474 318.505 273.474 318.505L262 318.201C258.904 322.446 252.882 325.97 248.323 327.299C246.86 327.727 245.777 328.914 245.492 330.32C245.502 330.348 245.492 330.367 245.502 330.396C245.673 331.127 245.91 331.564 245.91 331.564Z" fill="#37474F"/>
<path d="M267.319 328.734C264.859 328.687 262.01 331.298 259.739 332.239C257.469 333.169 255.085 333.967 252.635 334.033C250.175 334.1 247.61 333.34 245.92 331.564C245.92 331.564 245.682 331.127 245.521 330.396C245.511 330.368 245.521 330.349 245.511 330.32C245.416 330.814 245.407 331.327 245.521 331.849C245.682 332.58 245.92 333.017 245.92 333.017C247.61 334.793 250.184 335.553 252.635 335.487C255.095 335.42 257.469 334.632 259.739 333.692C262.01 332.761 264.868 330.14 267.319 330.187C269.846 330.235 272.03 330.035 274.395 329.779C274.452 329.266 274.481 328.753 274.509 328.24C272.268 328.487 269.589 328.782 267.319 328.734Z" fill="#263238"/>
<path d="M302.662 337.946C302.653 339.2 302.567 340.453 302.292 341.679C301.817 343.825 300.715 345.914 298.882 347.12C297.305 348.165 295.348 348.45 293.458 348.564C291.787 348.668 290.067 348.64 288.5 348.051C287.313 347.605 286.221 346.769 285.594 345.677C285.594 345.696 285.603 345.724 285.603 345.743C285.974 347.377 287.379 348.63 288.947 349.219C290.514 349.808 292.233 349.837 293.905 349.732C295.795 349.618 297.751 349.333 299.328 348.289C301.161 347.082 302.263 344.993 302.738 342.847C303.013 341.622 303.099 340.368 303.108 339.114C303.118 337.376 303.84 335.743 305.113 334.556C305.417 334.271 305.72 333.967 305.986 333.654C306.376 333.207 306.566 332.618 306.518 332.029C306.499 331.802 306.48 331.574 306.442 331.346C305.996 331.878 304.923 333.131 304.657 333.388C303.393 334.575 302.672 336.208 302.662 337.946Z" fill="#263238"/>
<path d="M293.25 324.945C293.725 327.481 293.26 330.121 292.291 332.515C291.322 334.898 289.859 337.054 288.282 339.106C287.532 340.084 286.744 341.052 286.183 342.164C285.642 343.256 285.338 344.509 285.585 345.697C286.202 346.789 287.295 347.615 288.491 348.071C290.059 348.66 291.778 348.688 293.45 348.584C295.34 348.47 297.296 348.185 298.873 347.14C300.706 345.934 301.808 343.845 302.283 341.698C302.558 340.473 302.644 339.22 302.653 337.966C302.663 336.228 303.385 334.594 304.657 333.398C304.923 333.151 305.987 331.888 306.443 331.356C306.035 328.269 304.6 326.075 304.6 326.075L293.25 324.945Z" fill="#37474F"/>
<path d="M261.535 217.637C261.535 217.637 258.629 255.739 258.885 266.338C259.142 276.937 260.205 318.829 260.205 318.829C266.142 322.295 274.728 319.712 274.728 319.712C275.422 286.273 278.575 279.083 276.428 266.841C277.939 257.753 280.028 236.584 280.028 236.584C282.992 262.045 285.138 275.17 285.138 275.17L292.205 326.142C298.008 329.171 305.331 326.142 305.331 326.142C305.331 297.09 305.958 284.791 302.938 265.616C302.776 236.09 301.285 218.15 301.285 218.15L261.535 217.637Z" fill="#455A64"/>
<path opacity="0.2" d="M268.555 227.484C270.578 232.451 276.932 232.451 276.932 232.451L278.072 238.093L277.654 258.16C278.87 248.397 280.038 236.592 280.038 236.592L279.259 230.552C273.902 230.761 270.017 228.662 268.555 227.484Z" fill="black"/>
<path d="M242.329 175.09L237.779 179.164L225.184 165.659C223.968 164.349 223.104 162.744 222.686 161.006L221.974 158.005C221.784 157.216 221.489 156.466 221.081 155.773C220.464 154.719 219.808 153.655 219.248 152.601C219.067 152.268 218.868 151.926 218.535 151.765C218.146 151.585 217.652 151.736 217.358 152.059C217.063 152.382 216.949 152.829 216.959 153.256C216.968 153.683 217.073 154.111 217.187 154.529C217.358 155.174 217.538 155.82 217.709 156.466C217.785 156.732 217.852 157.007 217.842 157.283C217.823 157.558 217.709 157.843 217.472 157.995C216.93 158.318 209.161 151.11 207.869 147.814C207.518 146.931 204.735 147.444 206.416 151.053C205.77 151.499 205.57 152.306 205.523 153.095C205.475 154.073 205.418 155.06 205.371 156.039C205.323 157.007 205.266 157.986 205.475 158.935C205.789 160.35 206.653 161.576 207.603 162.668C209.351 164.691 211.545 166.125 213.929 167.188C215.743 167.996 217.301 169.287 218.403 170.94L230.446 189.098C233.258 193.343 239.118 194.246 243.079 191.036L249.443 185.888L242.329 175.09Z" fill="#FFA8A7"/>
<path d="M264.146 158.167C257.963 157.815 256.348 161.045 252.435 164.682C248.531 168.319 241.18 175.395 241.18 175.395C242.395 184.085 249.329 186.915 249.329 186.915L262.94 176.876L264.146 158.167Z" fill="#455A64"/>
<path d="M302.29 220.523C302.29 220.523 279.238 228.957 260.527 218.444C260.527 218.444 261.666 205.034 261.999 197.217C262.331 189.401 259.643 174.31 259.235 170.265C258.826 166.219 259.368 159.219 264.136 158.156C272.979 156.285 289.61 158.156 289.61 158.156L299.536 169.125C303.715 190.551 302.993 213.049 302.29 220.523Z" fill="#5BBFA8"/>
<path d="M243.878 215.548C243.878 215.538 243.878 215.538 243.878 215.529C243.878 215.519 243.878 215.51 243.878 215.5C243.878 215.481 243.868 215.472 243.868 215.453C243.868 215.434 243.859 215.424 243.849 215.405C243.84 215.386 243.84 215.377 243.83 215.358C243.821 215.339 243.821 215.329 243.811 215.31C243.802 215.292 243.792 215.282 243.792 215.263C243.783 215.244 243.773 215.235 243.764 215.216L234.598 197.684C234.588 197.665 234.579 197.655 234.569 197.636C234.56 197.617 234.55 197.598 234.541 197.579C234.531 197.56 234.522 197.541 234.512 197.522C234.503 197.503 234.493 197.484 234.474 197.465C234.465 197.446 234.446 197.427 234.436 197.408C234.427 197.389 234.408 197.37 234.398 197.351C234.389 197.332 234.37 197.313 234.36 197.294C234.351 197.275 234.332 197.256 234.322 197.237C234.313 197.218 234.294 197.199 234.284 197.19C234.275 197.171 234.256 197.161 234.246 197.142C234.237 197.133 234.227 197.114 234.218 197.104C234.208 197.095 234.199 197.076 234.18 197.066C234.17 197.057 234.161 197.047 234.151 197.038C234.142 197.028 234.132 197.019 234.123 197.01C234.113 197 234.104 196.991 234.094 196.981C234.085 196.972 234.075 196.962 234.066 196.953C234.056 196.943 234.056 196.934 234.047 196.934C234.037 196.924 234.037 196.924 234.028 196.915C234.018 196.905 234.018 196.905 234.009 196.896C233.999 196.886 234 196.886 233.99 196.877C233.981 196.867 233.981 196.867 233.971 196.858C233.962 196.848 233.962 196.848 233.952 196.839C233.943 196.829 233.943 196.829 233.933 196.82C233.924 196.81 233.924 196.81 233.914 196.801C233.905 196.791 233.905 196.791 233.895 196.782C233.886 196.772 233.886 196.772 233.876 196.763C233.867 196.753 233.867 196.753 233.857 196.744C233.848 196.734 233.848 196.734 233.838 196.725C233.829 196.715 233.829 196.715 233.819 196.706C233.81 196.696 233.81 196.696 233.8 196.687C233.791 196.677 233.791 196.677 233.781 196.668C233.772 196.658 233.772 196.658 233.762 196.649C233.753 196.639 233.753 196.639 233.743 196.63C233.734 196.62 233.724 196.611 233.715 196.601C233.705 196.592 233.696 196.582 233.677 196.563C233.667 196.554 233.658 196.544 233.639 196.525C233.591 196.487 233.553 196.44 233.506 196.402C233.496 196.392 233.487 196.383 233.477 196.373C233.468 196.364 233.458 196.354 233.449 196.345C233.439 196.335 233.43 196.326 233.42 196.316C233.411 196.307 233.401 196.297 233.392 196.288C233.382 196.278 233.382 196.278 233.373 196.269C233.363 196.259 233.363 196.259 233.354 196.25C233.344 196.24 233.344 196.24 233.335 196.231C233.325 196.221 233.325 196.221 233.316 196.212C233.306 196.202 233.306 196.202 233.297 196.193C233.287 196.183 233.287 196.183 233.278 196.174C233.268 196.164 233.268 196.164 233.259 196.155C233.249 196.145 233.249 196.145 233.24 196.136C233.23 196.126 233.23 196.126 233.221 196.117C233.211 196.107 233.211 196.107 233.202 196.098C233.192 196.088 233.192 196.088 233.183 196.079C233.173 196.069 233.173 196.069 233.164 196.06C233.154 196.05 233.154 196.05 233.145 196.041C233.135 196.031 233.126 196.031 233.126 196.022C233.116 196.012 233.107 196.012 233.107 196.003C233.097 195.993 233.088 195.993 233.088 195.984C233.078 195.974 233.069 195.974 233.069 195.965C233.059 195.955 233.05 195.955 233.05 195.946C233.04 195.936 233.031 195.927 233.021 195.927C233.012 195.917 233.002 195.908 232.993 195.908C232.983 195.898 232.974 195.889 232.964 195.889C232.955 195.879 232.945 195.87 232.926 195.86C232.907 195.851 232.898 195.841 232.879 195.832C232.86 195.822 232.85 195.813 232.831 195.803C232.812 195.794 232.793 195.784 232.784 195.765C232.765 195.756 232.746 195.737 232.727 195.727C232.708 195.718 232.689 195.699 232.67 195.689C232.651 195.68 232.632 195.661 232.613 195.651C232.603 195.642 232.584 195.642 232.575 195.632L221.88 189.459C221.87 189.45 221.861 189.45 221.851 189.44C221.832 189.431 221.813 189.421 221.785 189.402C221.766 189.393 221.747 189.383 221.728 189.374C221.709 189.364 221.69 189.355 221.671 189.345C221.652 189.336 221.633 189.326 221.614 189.317C221.595 189.307 221.576 189.298 221.557 189.288C221.538 189.279 221.519 189.269 221.5 189.269C221.481 189.26 221.462 189.25 221.443 189.25C221.424 189.241 221.405 189.241 221.386 189.231C221.367 189.222 221.348 189.222 221.329 189.212C221.319 189.212 221.3 189.203 221.291 189.203C221.281 189.203 221.281 189.203 221.272 189.203C221.253 189.203 221.224 189.193 221.205 189.193C221.177 189.193 221.158 189.193 221.129 189.193C221.053 189.193 221.006 189.222 220.968 189.26L219.667 190.713C219.676 190.703 219.705 190.713 219.714 190.703C219.61 190.779 219.6 190.95 219.752 191.245L228.918 208.776C229.25 209.403 230.153 210.296 230.96 210.761L241.655 216.935C242.206 217.257 242.538 217.267 242.586 217.039C242.576 217.067 242.586 217.115 242.567 217.134L243.868 215.681C243.887 215.662 243.897 215.643 243.906 215.614C243.916 215.595 243.916 215.576 243.916 215.557C243.878 215.586 243.878 215.567 243.878 215.548ZM219.876 190.722C219.904 190.722 219.914 190.703 219.952 190.713C219.961 190.713 219.98 190.722 219.99 190.732C219.942 190.713 219.914 190.722 219.876 190.722ZM232.138 197.807C232.233 197.893 232.337 197.969 232.432 198.064C232.347 197.978 232.242 197.893 232.138 197.807ZM232.812 198.472C232.85 198.52 232.907 198.567 232.945 198.615C232.898 198.567 232.85 198.52 232.812 198.472ZM242.567 217.01C242.567 216.916 242.529 216.802 242.453 216.659C242.519 216.783 242.557 216.897 242.567 216.982C242.576 217.001 242.567 217.001 242.567 217.01Z" fill="#455A64"/>
<path opacity="0.15" d="M243.878 215.548C243.878 215.538 243.878 215.538 243.878 215.529C243.878 215.519 243.878 215.51 243.878 215.5C243.878 215.481 243.868 215.472 243.868 215.453C243.868 215.434 243.859 215.424 243.849 215.405C243.84 215.386 243.84 215.377 243.83 215.358C243.821 215.339 243.821 215.329 243.811 215.31C243.802 215.291 243.792 215.282 243.792 215.263C243.783 215.244 243.773 215.234 243.764 215.215L234.598 197.684L233.297 199.137L242.463 216.668C242.529 216.792 242.567 216.906 242.577 216.991C242.586 217.077 242.577 217.143 242.529 217.191L243.83 215.738C243.849 215.719 243.859 215.7 243.868 215.671C243.878 215.652 243.878 215.633 243.878 215.614C243.878 215.586 243.878 215.567 243.878 215.548Z" fill="white"/>
<path opacity="0.2" d="M234.559 197.627C234.549 197.608 234.54 197.589 234.53 197.57C234.521 197.551 234.511 197.532 234.502 197.513C234.492 197.494 234.483 197.475 234.464 197.456C234.454 197.437 234.435 197.418 234.426 197.399C234.416 197.38 234.397 197.361 234.388 197.342C234.378 197.323 234.359 197.304 234.35 197.285C234.34 197.266 234.322 197.247 234.312 197.228C234.303 197.209 234.284 197.19 234.274 197.18C234.265 197.161 234.246 197.152 234.236 197.133C234.227 197.123 234.217 197.104 234.208 197.095C234.198 197.085 234.189 197.066 234.17 197.057C234.16 197.047 234.151 197.038 234.141 197.028C234.132 197.019 234.122 197.009 234.113 197C234.103 196.99 234.094 196.981 234.084 196.971C234.075 196.962 234.065 196.952 234.056 196.943C234.046 196.933 234.046 196.924 234.037 196.924C234.027 196.914 234.027 196.914 234.018 196.905C234.008 196.895 234.008 196.895 233.999 196.886C233.989 196.876 233.989 196.876 233.98 196.867C233.97 196.857 233.97 196.857 233.961 196.848C233.951 196.838 233.951 196.838 233.942 196.829C233.932 196.819 233.932 196.819 233.923 196.81C233.913 196.8 233.913 196.8 233.904 196.791C233.894 196.781 233.894 196.781 233.885 196.772C233.875 196.762 233.875 196.762 233.866 196.753C233.856 196.743 233.856 196.743 233.847 196.734C233.837 196.724 233.837 196.724 233.828 196.715C233.818 196.705 233.818 196.705 233.809 196.696C233.799 196.686 233.799 196.686 233.79 196.677C233.78 196.667 233.78 196.667 233.771 196.658C233.761 196.648 233.761 196.648 233.752 196.639C233.742 196.629 233.742 196.629 233.733 196.62C233.723 196.61 233.714 196.601 233.704 196.591C233.695 196.582 233.685 196.572 233.666 196.553C233.657 196.544 233.647 196.534 233.628 196.515C233.581 196.477 233.543 196.43 233.495 196.392C233.486 196.382 233.476 196.373 233.467 196.363C233.457 196.354 233.448 196.344 233.438 196.335C233.429 196.325 233.419 196.316 233.41 196.306C233.4 196.297 233.391 196.287 233.381 196.278C233.372 196.268 233.372 196.268 233.362 196.259C233.353 196.249 233.353 196.249 233.343 196.24C233.334 196.23 233.334 196.23 233.324 196.221C233.315 196.211 233.315 196.211 233.305 196.202C233.296 196.192 233.296 196.192 233.286 196.183C233.277 196.174 233.277 196.173 233.267 196.164C233.258 196.155 233.258 196.154 233.248 196.145C233.239 196.136 233.239 196.135 233.229 196.126C233.22 196.117 233.22 196.117 233.21 196.107C233.201 196.098 233.201 196.098 233.191 196.088C233.182 196.079 233.182 196.079 233.172 196.069C233.163 196.06 233.163 196.06 233.153 196.05C233.144 196.041 233.144 196.041 233.134 196.031C233.125 196.022 233.115 196.022 233.115 196.012C233.106 196.003 233.096 196.003 233.096 195.993C233.087 195.984 233.077 195.984 233.077 195.974C233.068 195.965 233.058 195.965 233.058 195.955C233.049 195.946 233.039 195.946 233.039 195.936C233.03 195.927 233.02 195.917 233.011 195.917C233.001 195.908 232.992 195.898 232.982 195.898C232.973 195.889 232.963 195.879 232.954 195.879C232.944 195.87 232.935 195.86 232.916 195.851C232.897 195.841 232.887 195.832 232.868 195.822C232.849 195.813 232.84 195.803 232.821 195.794C232.802 195.784 232.783 195.775 232.773 195.756C232.754 195.746 232.735 195.727 232.716 195.718C232.697 195.708 232.678 195.689 232.659 195.68C232.64 195.67 232.621 195.651 232.602 195.642C232.593 195.632 232.574 195.632 232.564 195.623L221.869 189.45C221.86 189.44 221.85 189.44 221.841 189.431C221.822 189.421 221.803 189.412 221.774 189.393C221.755 189.383 221.736 189.374 221.717 189.364C221.698 189.355 221.679 189.345 221.66 189.336C221.641 189.326 221.622 189.317 221.603 189.307C221.584 189.298 221.565 189.288 221.546 189.279C221.527 189.269 221.508 189.26 221.489 189.26C221.47 189.25 221.451 189.241 221.432 189.241C221.413 189.231 221.394 189.231 221.375 189.222C221.356 189.212 221.337 189.212 221.318 189.203C221.309 189.203 221.29 189.193 221.28 189.193C221.271 189.193 221.271 189.193 221.261 189.193C221.242 189.193 221.214 189.184 221.195 189.184C221.166 189.184 221.147 189.184 221.119 189.184C221.043 189.184 220.996 189.212 220.958 189.25L219.656 190.703C219.713 190.637 219.827 190.618 219.979 190.656C220.131 190.694 220.331 190.77 220.568 190.912L231.263 197.085C231.463 197.199 231.662 197.342 231.871 197.503C232.07 197.665 232.27 197.835 232.46 198.016C232.64 198.196 232.811 198.377 232.963 198.557C233.106 198.738 233.229 198.918 233.315 199.07L234.616 197.617C234.578 197.655 234.568 197.646 234.559 197.627Z" fill="white"/>
<path d="M235.177 215.462C231.558 213.193 228.861 208.767 229.411 204.531C229.411 204.531 236.165 208.083 239.195 206.184L237.637 203.211C241.769 203.211 246.261 204.645 249.396 207.342C255.702 206.383 262.256 204.275 268.164 201.9C269.95 201.179 271.716 200.4 273.588 199.963C275.459 199.526 277.472 199.441 279.268 200.125C281.063 200.799 282.611 202.337 282.953 204.227C283.304 206.193 282.316 208.216 280.844 209.565C279.382 210.923 277.491 211.711 275.611 212.385C267.841 215.177 238.796 217.723 235.177 215.462Z" fill="#FFA8A7"/>
<path d="M256.86 140.653C254.979 139.305 253.64 137.244 253.156 134.983C252.681 132.723 253.08 130.292 254.248 128.297C253.232 127.813 252.244 126.996 251.779 125.971C251.332 124.983 251.551 123.729 252.31 122.951C253.07 122.172 254.315 121.915 255.312 122.343C254.685 120.804 255.407 118.715 256.841 117.879C258.275 117.043 260.289 117.414 261.334 118.705C261.267 117.651 261.999 116.635 263.005 116.303C264.012 115.97 265.114 116.151 266.121 116.502C267.128 116.853 268.068 117.338 269.075 117.661C270.775 118.202 272.599 118.212 274.375 118.335C276.151 118.458 277.994 118.734 279.494 119.703C280.995 120.671 282.315 122.941 281.508 124.898C282.011 124.261 282.819 123.796 283.636 123.767C284.452 123.739 285.269 124.09 285.82 124.698C284.709 125.391 283.626 126.132 282.515 126.825C283.636 126.322 285.307 127.11 285.915 128.184C286.523 129.257 286.552 130.548 286.514 131.773C286.381 136.446 285.526 141.09 284.044 145.525C283.284 147.814 282.182 150.245 280.007 151.309L256.86 140.653Z" fill="#37474F"/>
<path d="M268.686 151.698L269.18 157.178C269.218 157.605 269.085 158.014 268.867 158.384C268.249 159.457 268.439 161.176 269.351 161.965C270.016 162.544 270.928 162.734 271.802 162.791C275.183 163.038 278.631 161.575 280.863 159.296C281.347 158.802 281.594 158.118 281.585 157.416L281.224 143.512L268.686 151.698Z" fill="#FFA8A7"/>
<path opacity="0.3" d="M280.122 144.242L268.695 151.697L269.132 156.56C271.792 155.933 274.461 155.173 276.569 153.464C279.229 151.28 280.625 147.652 280.122 144.242Z" fill="black"/>
<path d="M256.225 129.352C255.389 135.687 255.807 142.192 257.46 148.366C257.821 149.714 258.248 151.072 258.97 152.269C259.692 153.465 260.737 154.52 262.057 155.004C263.672 155.612 265.467 155.317 267.158 155.014C270.264 154.463 273.446 153.893 276.143 152.259C278.841 150.626 280.978 147.682 280.712 144.538C282.279 145.44 284.264 145.678 285.869 144.823C287.465 143.968 288.567 142.259 288.7 140.454C288.823 138.697 287.807 136.741 286.078 136.39C285.024 136.181 283.922 136.599 283.077 137.263C282.231 137.928 281.604 138.83 280.987 139.704C280.693 140.122 280.379 140.559 279.942 140.825C279.505 141.091 278.888 141.138 278.499 140.806C278.071 140.445 278.062 139.799 278.09 139.239L278.271 135.259C278.299 134.633 277.948 134.063 277.387 133.778C276.58 133.37 275.953 132.61 275.602 131.727C275.298 130.967 275.165 130.15 275.098 129.333C275.041 128.668 274.376 128.251 273.759 128.498C268.402 130.672 261.744 130.767 256.225 129.352Z" fill="#FFA8A7"/>
<path d="M264.983 139.012L261.402 145.033L265.677 145.84L264.983 139.012Z" fill="#F28F8F"/>
<path d="M269.79 147.91C268.707 148.432 267.624 148.964 266.551 149.487C267.026 150.227 268.213 150.541 269.011 150.189C269.799 149.829 270.027 148.755 269.79 147.91Z" fill="#F28F8F"/>
<path opacity="0.3" d="M269.79 147.91C268.707 148.432 267.624 148.964 266.551 149.487C267.026 150.227 268.213 150.541 269.011 150.189C269.799 149.829 270.027 148.755 269.79 147.91Z" fill="black"/>
<path d="M267.881 150.294C268.27 150.361 268.669 150.342 269.011 150.19C269.638 149.905 269.904 149.183 269.875 148.48C269.42 148.48 268.954 148.632 268.593 148.927C268.185 149.259 267.928 149.763 267.881 150.294Z" fill="#F28F8F"/>
<path d="M271.166 139.248C271.233 139.923 270.739 140.521 270.074 140.587C269.399 140.654 268.801 140.16 268.735 139.495C268.668 138.821 269.162 138.223 269.827 138.156C270.501 138.08 271.1 138.574 271.166 139.248Z" fill="#263238"/>
<path d="M260.889 139.885C260.955 140.559 260.461 141.158 259.796 141.224C259.122 141.291 258.524 140.797 258.457 140.132C258.391 139.458 258.885 138.859 259.549 138.793C260.214 138.717 260.822 139.211 260.889 139.885Z" fill="#263238"/>
<path d="M259.208 135.155C258.373 135.867 257.527 136.58 256.691 137.301C256.359 136.684 256.53 135.829 257.024 135.335C257.527 134.832 258.6 134.823 259.208 135.155Z" fill="#263238"/>
<path d="M269.637 133.949C270.606 134.481 271.565 135.013 272.524 135.544C272.724 134.88 272.382 134.072 271.802 133.683C271.232 133.303 270.178 133.503 269.637 133.949Z" fill="#263238"/>
<path d="M277.7 187.578L272.172 201.814L278.26 211.302C287.132 207.275 285.308 208.415 291.444 193.599L277.7 187.578Z" fill="#FFA8A7"/>
<path d="M289.611 158.166C282.952 166.03 280.464 179.544 277.025 188.234C280.863 195.509 291.577 194.806 291.577 194.806C301.388 174.387 305.53 158.992 289.611 158.166Z" fill="#455A64"/>
</g>
<defs>
<clipPath id="clip0_611_2287">
<rect width="410" height="415.339" fill="white"/>
</clipPath>
</defs>
</svg>
