<svg width="296" height="341" viewBox="0 0 296 341" fill="none" xmlns="http://www.w3.org/2000/svg">
<circle cx="151.719" cy="166.028" r="111.968" fill="#5CBFA8"/>
<path d="M201.477 141.532C201.477 144.581 200.281 147.525 198.106 149.627L147.533 198.618C145.249 200.72 142.204 201.982 139.05 201.982C135.896 201.982 132.85 200.72 130.675 198.618L105.334 174.123C103.159 172.02 101.963 169.076 101.963 166.028C101.963 162.979 103.268 160.14 105.443 157.933C107.727 155.83 110.664 154.674 113.818 154.568C116.972 154.568 119.908 155.725 122.192 157.827L139.05 174.123L181.248 133.332C183.532 131.23 186.469 130.073 189.623 130.073C192.777 130.178 195.713 131.335 197.997 133.543C200.172 135.645 201.477 138.484 201.477 141.532Z" fill="#D1EEFE"/>
<path d="M235.555 277.996C246.007 281.016 266.216 292.49 263.428 314.23" stroke="#F7B23B" stroke-width="3" stroke-linecap="round" stroke-linejoin="round"/>
<circle cx="183.512" cy="330.131" r="10.7323" fill="#5CBFA8"/>
<circle cx="284.971" cy="160.179" r="10.7323" fill="#5CBFA8"/>
<circle cx="114.606" cy="12.3534" r="11.7528" fill="#5CBFA8"/>
<circle cx="147.974" cy="32.1892" r="6.20678" fill="#5CBFA8"/>
<circle cx="11.1742" cy="123.343" r="10.3773" stroke="#F7B23B"/>
<circle cx="36.1577" cy="294.857" r="11.4604" stroke="#5CBFA8"/>
<circle cx="5.71395" cy="5.71395" r="5.71395" transform="matrix(-1 0 0 1 155.855 312.108)" fill="#5CBFA8"/>
</svg>
