<svg width="16" height="16" viewBox="0 0 16 16" fill="none" xmlns="http://www.w3.org/2000/svg">
<g clip-path="url(#clip0_680_373)">
<path d="M13.2063 2.09642C13.2121 1.57424 13.0093 1.07134 12.6429 0.699229C12.2704 0.33078 11.7697 0.120805 11.2457 0.1133C10.7309 0.111057 10.2363 0.313742 9.87109 0.67667L12.6429 3.47105C13.0147 3.11183 13.2191 2.61325 13.2063 2.09642Z" fill="#5CBFA8"/>
<path d="M12.012 4.10188L9.24023 1.33008L2.81775 7.75256L5.58955 10.5244L12.012 4.10188Z" fill="#5CBFA8"/>
<path d="M2.45718 8.6543L1.82617 11.5163L4.68814 10.8853L2.45718 8.6543Z" fill="#5CBFA8"/>
<path d="M15.5493 14.9863H0.450705C0.20178 14.9863 0 15.1881 0 15.437C0 15.686 0.20178 15.8877 0.450705 15.8877H15.5493C15.7982 15.8877 16 15.686 16 15.437C16 15.1881 15.7982 14.9863 15.5493 14.9863Z" fill="#5CBFA8"/>
</g>
<defs>
<clipPath id="clip0_680_373">
<rect width="16" height="16" fill="white"/>
</clipPath>
</defs>
</svg>
