<svg width="38" height="38" viewBox="0 0 38 38" fill="none" xmlns="http://www.w3.org/2000/svg">
<path d="M35.1541 31.4474H2.84592C1.27411 31.4474 0 30.1733 0 28.6014V9.3967C0 7.82497 1.27411 6.55078 2.84592 6.55078H35.1541C36.7258 6.55078 38 7.82489 38 9.3967V28.6015C38 30.1733 36.7259 31.4474 35.1541 31.4474Z" fill="#F5F5F5"/>
<path d="M35.1541 6.55078H2.84592C1.27411 6.55078 0 7.82489 0 9.3967V18.999H38V9.3967C38 7.82489 36.7259 6.55078 35.1541 6.55078Z" fill="#FF4B55"/>
<path d="M0 18.9999H38V30.793C38 30.9668 37.9309 31.1334 37.8081 31.2563C37.6852 31.3792 37.5186 31.4482 37.3448 31.4482H0.655203C0.481438 31.4482 0.314796 31.3792 0.191926 31.2563C0.0690561 31.1334 1.968e-05 30.9668 0 30.793L0 18.9999ZM5.38598 12.785C5.38598 10.6306 6.96684 8.84468 9.03109 8.51425C9.14316 8.49629 9.1482 8.34214 9.03762 8.31661C8.50744 8.19392 7.95935 8.16877 7.42017 8.24239C5.19375 8.54565 3.47277 10.4724 3.4413 12.7191C3.40545 15.2846 5.47363 17.3735 8.02691 17.3735C8.37447 17.3735 8.71195 17.3329 9.03673 17.2582C9.14724 17.2328 9.14167 17.0783 9.02975 17.0603C6.96632 16.7303 5.38598 14.9479 5.38598 12.785Z" fill="#F5F5F5"/>
<path d="M9.06529 13.9377L8.87135 14.5193L8.25838 14.524C8.17904 14.5247 8.14609 14.6259 8.20999 14.673L8.7031 15.0372L8.51815 15.6217C8.49425 15.6974 8.58042 15.76 8.64491 15.7138L9.14366 15.3573L9.64241 15.7138C9.70698 15.76 9.79308 15.6973 9.76918 15.6217L9.58422 15.0372L10.0773 14.673C10.1412 14.6258 10.1083 14.5247 10.0289 14.524L9.41597 14.5193L9.22204 13.9377C9.19688 13.8625 9.09037 13.8625 9.06529 13.9377ZM12.0954 13.9377L11.9015 14.5193L11.2885 14.524C11.2092 14.5247 11.1762 14.6259 11.2401 14.673L11.7332 15.0372L11.5483 15.6217C11.5244 15.6974 11.6105 15.76 11.675 15.7138L12.1738 15.3573L12.6725 15.7138C12.7371 15.76 12.8232 15.6973 12.7993 15.6217L12.6144 15.0372L13.1075 14.673C13.1714 14.6258 13.1384 14.5247 13.0591 14.524L12.4461 14.5193L12.2522 13.9377C12.227 13.8625 12.1206 13.8625 12.0954 13.9377ZM10.594 9.26152L10.4001 9.8431L9.78714 9.84785C9.7078 9.84844 9.67485 9.94975 9.73875 9.99688L10.2319 10.3611L10.0469 10.9455C10.023 11.0212 10.1092 11.0838 10.1737 11.0377L10.6724 10.6812L11.1712 11.0377C11.2357 11.0838 11.3218 11.0212 11.2979 10.9455L11.113 10.3611L11.6061 9.99688C11.67 9.94968 11.637 9.84852 11.5577 9.84785L10.9447 9.8431L10.7508 9.26152C10.7256 9.18626 10.6191 9.18626 10.594 9.26152ZM8.17808 11.0531L7.98414 11.6347L7.37117 11.6394C7.29183 11.64 7.25888 11.7413 7.32278 11.7884L7.81589 12.1526L7.63094 12.7371C7.60704 12.8128 7.6932 12.8754 7.7577 12.8292L8.25645 12.4727L8.7552 12.8292C8.81977 12.8754 8.90586 12.8127 8.88197 12.7371L8.69701 12.1526L9.1902 11.7884C9.2541 11.7412 9.22115 11.6401 9.14181 11.6394L8.52883 11.6347L8.3349 11.0531C8.30967 10.9778 8.20316 10.9778 8.17808 11.0531ZM12.9895 11.0531L12.7956 11.6347L12.1826 11.6394C12.1033 11.64 12.0703 11.7413 12.1342 11.7884L12.6273 12.1526L12.4424 12.7371C12.4185 12.8128 12.5047 12.8754 12.5692 12.8292L13.0679 12.4727L13.5667 12.8292C13.6312 12.8754 13.7173 12.8127 13.6934 12.7371L13.5085 12.1526L14.0016 11.7884C14.0655 11.7412 14.0325 11.6401 13.9532 11.6394L13.3402 11.6347L13.1463 11.0531C13.1211 10.9778 13.0146 10.9778 12.9895 11.0531Z" fill="#F5F5F5"/>
</svg>
