<svg width="18" height="69" viewBox="0 0 18 69" fill="none" xmlns="http://www.w3.org/2000/svg">
<path d="M2.19583 33.5998C1.85401 33.6007 1.51945 33.6909 1.23084 33.8601C0.942244 34.0294 0.711399 34.2706 0.565018 34.556C0.418637 34.8413 0.362702 35.1591 0.403684 35.4726C0.444665 35.7861 0.580889 36.0825 0.796595 36.3275L5.39494 41.5313C5.55889 41.7194 5.76906 41.8686 6.00797 41.9666C6.24688 42.0645 6.50765 42.1084 6.76862 42.0946C7.32676 42.0669 7.83066 41.7911 8.15193 41.3376L17.7039 27.1262C17.7054 27.1238 17.7071 27.1214 17.7087 27.1191C17.7984 26.992 17.7693 26.7401 17.5843 26.5818C17.5335 26.5383 17.4736 26.5049 17.4083 26.4837C17.3429 26.4624 17.2736 26.4537 17.2045 26.4582C17.1354 26.4626 17.0681 26.48 17.0065 26.5094C16.945 26.5388 16.8907 26.5795 16.8468 26.629C16.8434 26.6329 16.8399 26.6368 16.8363 26.6406L7.20301 36.6955C7.16635 36.7337 7.12183 36.7649 7.07203 36.7871C7.02224 36.8094 6.96815 36.8222 6.91292 36.825C6.85769 36.8278 6.80242 36.8204 6.75032 36.8032C6.69822 36.7861 6.65032 36.7595 6.60941 36.7251L3.41232 34.0374C3.08027 33.7562 2.64628 33.6001 2.19583 33.5998Z" fill="#42A88C"/>
<path d="M2.19583 7.14274C1.85401 7.14363 1.51945 7.2339 1.23084 7.40311C0.942244 7.57233 0.711399 7.81357 0.565018 8.09893C0.418637 8.38429 0.362702 8.7021 0.403684 9.0156C0.444665 9.3291 0.580889 9.62548 0.796595 9.87044L5.39494 15.0743C5.55889 15.2623 5.76906 15.4116 6.00797 15.5095C6.24688 15.6075 6.50765 15.6514 6.76862 15.6376C7.32675 15.6099 7.83066 15.334 8.15193 14.8805L17.7039 0.669127C17.7054 0.666753 17.7071 0.664407 17.7087 0.66209C17.7984 0.534963 17.7693 0.28303 17.5843 0.124763C17.5335 0.0813003 17.4736 0.0479094 17.4083 0.0266459C17.3429 0.00538239 17.2736 -0.00330344 17.2045 0.00112351C17.1354 0.00555047 17.0681 0.0229965 17.0065 0.0523869C16.945 0.0817774 16.8907 0.12249 16.8468 0.172018C16.8434 0.175912 16.8399 0.179747 16.8363 0.183523L7.20301 10.2385C7.16635 10.2767 7.12183 10.3079 7.07203 10.3301C7.02224 10.3523 6.96815 10.3652 6.91292 10.368C6.85769 10.3707 6.80242 10.3633 6.75032 10.3462C6.69822 10.329 6.65032 10.3025 6.60941 10.2681L3.41232 7.58039C3.08027 7.29919 2.64628 7.14306 2.19583 7.14274Z" fill="#42A88C"/>
<path d="M2.19583 60.0588C1.85401 60.0596 1.51945 60.1499 1.23084 60.3191C0.942244 60.4883 0.711399 60.7296 0.565018 61.0149C0.418637 61.3003 0.362702 61.6181 0.403684 61.9316C0.444665 62.2451 0.580889 62.5415 0.796595 62.7865L5.39494 67.9903C5.55889 68.1783 5.76906 68.3276 6.00797 68.4255C6.24688 68.5235 6.50765 68.5674 6.76862 68.5536C7.32675 68.5259 7.83066 68.2501 8.15193 67.7965L17.7039 53.5851C17.7054 53.5828 17.7071 53.5804 17.7087 53.5781C17.7984 53.451 17.7693 53.199 17.5843 53.0408C17.5335 52.9973 17.4736 52.9639 17.4083 52.9427C17.3429 52.9214 17.2736 52.9127 17.2045 52.9171C17.1354 52.9216 17.0681 52.939 17.0065 52.9684C16.945 52.9978 16.8907 53.0385 16.8468 53.088C16.8434 53.0919 16.8399 53.0958 16.8363 53.0995L7.20301 63.1545C7.16635 63.1927 7.12183 63.2239 7.07203 63.2461C7.02224 63.2684 6.96815 63.2812 6.91292 63.284C6.85769 63.2867 6.80242 63.2793 6.75032 63.2622C6.69822 63.2451 6.65032 63.2185 6.60941 63.1841L3.41232 60.4964C3.08027 60.2152 2.64628 60.0591 2.19583 60.0588Z" fill="#42A88C"/>
</svg>
