<svg width="18" height="69" viewBox="0 0 18 69" fill="none" xmlns="http://www.w3.org/2000/svg">
<path d="M1.83866 33.5998C1.49753 33.6007 1.16365 33.6909 0.875629 33.8601C0.587612 34.0294 0.357235 34.2706 0.21115 34.556C0.065065 34.8413 0.00924295 35.1591 0.0501417 35.4726C0.0910405 35.7861 0.226989 36.0825 0.442258 36.3275L5.0313 41.5313C5.19492 41.7194 5.40466 41.8686 5.64309 41.9666C5.88152 42.0645 6.14176 42.1084 6.40219 42.0946C6.9592 42.0669 7.46209 41.7911 7.78271 41.3376L17.3153 27.1262C17.3169 27.1238 17.3185 27.1214 17.3202 27.1191C17.4096 26.992 17.3806 26.7401 17.196 26.5818C17.1453 26.5383 17.0855 26.5049 17.0203 26.4837C16.9551 26.4624 16.8859 26.4537 16.817 26.4582C16.748 26.4626 16.6808 26.48 16.6194 26.5094C16.558 26.5388 16.5038 26.5795 16.46 26.629C16.4566 26.6329 16.4531 26.6368 16.4495 26.6406L6.83571 36.6955C6.79913 36.7337 6.7547 36.7649 6.705 36.7871C6.6553 36.8094 6.60133 36.8222 6.54621 36.825C6.49109 36.8278 6.43593 36.8204 6.38393 36.8032C6.33194 36.7861 6.28413 36.7595 6.24331 36.7251L3.05269 34.0374C2.72131 33.7562 2.2882 33.6001 1.83866 33.5998Z" fill="#42A88C"/>
<path d="M1.83866 7.14274C1.49753 7.14363 1.16365 7.2339 0.875629 7.40311C0.587612 7.57233 0.357235 7.81357 0.21115 8.09893C0.065065 8.38429 0.00924295 8.7021 0.0501417 9.0156C0.0910405 9.3291 0.226989 9.62548 0.442258 9.87044L5.0313 15.0743C5.19492 15.2623 5.40466 15.4116 5.64309 15.5095C5.88152 15.6075 6.14176 15.6514 6.40219 15.6376C6.9592 15.6099 7.46208 15.334 7.78271 14.8805L17.3153 0.669127C17.3169 0.666753 17.3185 0.664407 17.3202 0.66209C17.4096 0.534963 17.3806 0.28303 17.196 0.124763C17.1453 0.0813003 17.0855 0.0479094 17.0203 0.0266459C16.9551 0.00538239 16.8859 -0.00330344 16.817 0.00112351C16.748 0.00555047 16.6808 0.0229965 16.6194 0.0523869C16.558 0.0817774 16.5038 0.12249 16.46 0.172018C16.4566 0.175912 16.4531 0.179747 16.4495 0.183523L6.83571 10.2385C6.79912 10.2767 6.7547 10.3079 6.705 10.3301C6.6553 10.3523 6.60133 10.3652 6.54621 10.368C6.49109 10.3707 6.43593 10.3633 6.38393 10.3462C6.33194 10.329 6.28413 10.3025 6.24331 10.2681L3.05269 7.58039C2.72131 7.29919 2.2882 7.14306 1.83866 7.14274Z" fill="#42A88C"/>
<path d="M1.83866 60.0588C1.49753 60.0596 1.16365 60.1499 0.875629 60.3191C0.587612 60.4883 0.357235 60.7296 0.21115 61.0149C0.065065 61.3003 0.00924295 61.6181 0.0501417 61.9316C0.0910405 62.2451 0.226989 62.5415 0.442258 62.7865L5.0313 67.9903C5.19492 68.1783 5.40466 68.3276 5.64309 68.4255C5.88152 68.5235 6.14176 68.5674 6.40219 68.5536C6.9592 68.5259 7.46208 68.2501 7.78271 67.7965L17.3153 53.5851C17.3169 53.5828 17.3185 53.5804 17.3202 53.5781C17.4096 53.451 17.3806 53.199 17.196 53.0408C17.1453 52.9973 17.0855 52.9639 17.0203 52.9427C16.9551 52.9214 16.8859 52.9127 16.817 52.9171C16.748 52.9216 16.6808 52.939 16.6194 52.9684C16.558 52.9978 16.5038 53.0385 16.46 53.088C16.4566 53.0919 16.4531 53.0958 16.4495 53.0995L6.83571 63.1545C6.79912 63.1927 6.7547 63.2239 6.705 63.2461C6.6553 63.2684 6.60133 63.2812 6.54621 63.284C6.49109 63.2867 6.43593 63.2793 6.38393 63.2622C6.33194 63.2451 6.28413 63.2185 6.24331 63.1841L3.05269 60.4964C2.72131 60.2152 2.2882 60.0591 1.83866 60.0588Z" fill="#42A88C"/>
</svg>
