<svg width="25" height="19" viewBox="0 0 25 19" fill="none" xmlns="http://www.w3.org/2000/svg">
<path d="M12.2725 16.3636C11.6431 16.3623 11.0152 16.3037 10.3964 16.1885C10.2045 16.1578 10.0297 16.0597 9.90349 15.9119C9.77726 15.7641 9.70778 15.5761 9.7075 15.3817C9.70954 15.2619 9.73749 15.1439 9.78943 15.0358C9.84137 14.9277 9.91607 14.8322 10.0084 14.7557C10.1007 14.6792 10.2085 14.6236 10.3244 14.5927C10.4402 14.5618 10.5613 14.5563 10.6795 14.5766C11.2048 14.6755 11.738 14.7259 12.2725 14.7272C17.1195 14.7272 21.329 10.4833 22.6529 8.99989C21.7707 8.01246 20.8013 7.1066 19.7565 6.29332C19.6715 6.22751 19.6003 6.14561 19.547 6.05228C19.4936 5.95895 19.4592 5.85604 19.4456 5.74941C19.4182 5.53405 19.4775 5.31664 19.6104 5.145C19.7433 4.97335 19.939 4.86154 20.1543 4.83415C20.261 4.82059 20.3692 4.82816 20.4729 4.85644C20.5766 4.88471 20.6738 4.93314 20.7588 4.99895C22.0908 6.02528 23.3029 7.19862 24.3719 8.4967C24.4846 8.64067 24.5459 8.81826 24.5459 9.00111C24.5459 9.18397 24.4846 9.36155 24.3719 9.50553C24.1518 9.78453 18.9195 16.3636 12.2725 16.3636ZM21.0329 0.239554C20.8794 0.0861678 20.6713 0 20.4544 0C20.2374 0 20.0294 0.0861678 19.8759 0.239554L17.2741 2.84139C16.289 2.3667 15.2468 2.02129 14.1732 1.81375C13.5465 1.69591 12.9102 1.63647 12.2725 1.6362C5.62557 1.6362 0.393258 8.21524 0.173984 8.49506C0.0612533 8.63904 0 8.81662 0 8.99948C0 9.18233 0.0612533 9.35992 0.173984 9.50389C1.24192 10.8009 2.45287 11.9731 3.78383 12.9984C4.41343 13.4918 5.07306 13.9457 5.75893 14.3574L3.51219 16.6033C3.43404 16.6788 3.37171 16.7691 3.32883 16.8689C3.28595 16.9687 3.26338 17.0761 3.26244 17.1847C3.26149 17.2933 3.28219 17.4011 3.32333 17.5016C3.36447 17.6022 3.42522 17.6935 3.50205 17.7704C3.57887 17.8472 3.67022 17.9079 3.77077 17.9491C3.87132 17.9902 3.97906 18.0109 4.0877 18.01C4.19634 18.009 4.3037 17.9865 4.40352 17.9436C4.50335 17.9007 4.59363 17.8384 4.6691 17.7602L21.0329 1.39647C21.1862 1.24304 21.2724 1.03497 21.2724 0.818013C21.2724 0.601059 21.1862 0.392987 21.0329 0.239554ZM4.78856 11.7073C3.74366 10.8937 2.77427 9.9876 1.89218 8.99989C3.216 7.51733 7.42558 3.27257 12.2725 3.27257C12.8108 3.273 13.348 3.3234 13.877 3.42312C14.6176 3.56403 15.3412 3.78346 16.0354 4.07767L14.5283 5.58477C13.7416 5.065 12.7996 4.8329 11.8615 4.92773C10.9235 5.02257 10.047 5.43851 9.38029 6.1052C8.7136 6.77189 8.29765 7.6484 8.20282 8.58646C8.10799 9.52452 8.34009 10.4665 8.85986 11.2532L6.9543 13.162C6.19654 12.7327 5.47254 12.2464 4.78856 11.7073ZM10.0634 10.0504C9.90396 9.72305 9.82008 9.36403 9.81796 8.99989C9.81812 8.35079 10.0745 7.72801 10.5314 7.26696C10.8957 6.92057 11.3552 6.69106 11.8509 6.60795C12.3467 6.52484 12.856 6.59193 13.3133 6.8006L10.0634 10.0504Z" fill="#AEBCBE"/>
</svg>
