<svg width="18" height="69" viewBox="0 0 18 69" fill="none" xmlns="http://www.w3.org/2000/svg">
<path d="M1.84911 33.5998C1.50785 33.6007 1.17384 33.6909 0.885714 33.8601C0.597587 34.0294 0.367122 34.2706 0.220982 34.556C0.0748413 34.8413 0.018998 35.1591 0.0599123 35.4726C0.100827 35.7861 0.236827 36.0825 0.452178 36.3275L5.04297 41.5313C5.20665 41.7194 5.41647 41.8686 5.65499 41.9666C5.89351 42.0645 6.15385 42.1084 6.41438 42.0946C6.97161 42.0669 7.47468 41.7911 7.79542 41.3376L17.3317 27.1262C17.3332 27.1238 17.3349 27.1214 17.3365 27.1191C17.426 26.992 17.397 26.7401 17.2123 26.5818C17.1616 26.5383 17.1018 26.5049 17.0365 26.4837C16.9713 26.4624 16.9021 26.4537 16.8331 26.4582C16.7642 26.4626 16.6969 26.48 16.6355 26.5094C16.5741 26.5388 16.5198 26.5795 16.4761 26.629C16.4726 26.6329 16.4691 26.6368 16.4655 26.6406L6.84806 36.6955C6.81147 36.7337 6.76702 36.7649 6.7173 36.7871C6.66759 36.8094 6.61359 36.8222 6.55845 36.825C6.50332 36.8278 6.44814 36.8204 6.39612 36.8032C6.3441 36.7861 6.29628 36.7595 6.25544 36.7251L3.0636 34.0374C2.7321 33.7562 2.29882 33.6001 1.84911 33.5998Z" fill="#42A88C"/>
<path d="M1.84911 7.14274C1.50785 7.14363 1.17384 7.2339 0.885714 7.40311C0.597587 7.57233 0.367122 7.81357 0.220982 8.09893C0.0748413 8.38429 0.018998 8.7021 0.0599123 9.0156C0.100827 9.3291 0.236827 9.62548 0.452178 9.87044L5.04297 15.0743C5.20665 15.2623 5.41647 15.4116 5.65499 15.5095C5.89351 15.6075 6.15385 15.6514 6.41438 15.6376C6.97161 15.6099 7.47468 15.334 7.79542 14.8805L17.3317 0.669127C17.3332 0.666753 17.3349 0.664407 17.3365 0.66209C17.426 0.534963 17.397 0.28303 17.2123 0.124763C17.1616 0.0813003 17.1018 0.0479094 17.0365 0.0266459C16.9713 0.00538239 16.9021 -0.00330344 16.8331 0.00112351C16.7642 0.00555047 16.6969 0.0229965 16.6355 0.0523869C16.5741 0.0817774 16.5198 0.12249 16.4761 0.172018C16.4726 0.175912 16.4691 0.179747 16.4655 0.183523L6.84806 10.2385C6.81147 10.2767 6.76702 10.3079 6.7173 10.3301C6.66759 10.3523 6.61359 10.3652 6.55845 10.368C6.50332 10.3707 6.44814 10.3633 6.39612 10.3462C6.3441 10.329 6.29628 10.3025 6.25544 10.2681L3.0636 7.58039C2.7321 7.29919 2.29882 7.14306 1.84911 7.14274Z" fill="#42A88C"/>
<path d="M1.84911 60.0588C1.50785 60.0596 1.17384 60.1499 0.885714 60.3191C0.597587 60.4883 0.367122 60.7296 0.220982 61.0149C0.0748413 61.3003 0.018998 61.6181 0.0599123 61.9316C0.100827 62.2451 0.236827 62.5415 0.452178 62.7865L5.04297 67.9903C5.20665 68.1783 5.41647 68.3276 5.65499 68.4255C5.89351 68.5235 6.15385 68.5674 6.41438 68.5536C6.97161 68.5259 7.47468 68.2501 7.79542 67.7965L17.3317 53.5851C17.3332 53.5828 17.3349 53.5804 17.3365 53.5781C17.426 53.451 17.397 53.199 17.2123 53.0408C17.1616 52.9973 17.1018 52.9639 17.0365 52.9427C16.9713 52.9214 16.9021 52.9127 16.8331 52.9171C16.7642 52.9216 16.6969 52.939 16.6355 52.9684C16.5741 52.9978 16.5198 53.0385 16.4761 53.088C16.4726 53.0919 16.4691 53.0958 16.4655 53.0995L6.84806 63.1545C6.81147 63.1927 6.76702 63.2239 6.7173 63.2461C6.66759 63.2684 6.61359 63.2812 6.55845 63.284C6.50332 63.2867 6.44814 63.2793 6.39612 63.2622C6.3441 63.2451 6.29628 63.2185 6.25544 63.1841L3.0636 60.4964C2.7321 60.2152 2.29882 60.0591 1.84911 60.0588Z" fill="#42A88C"/>
</svg>
