<svg width="18" height="69" viewBox="0 0 18 69" fill="none" xmlns="http://www.w3.org/2000/svg">
<path d="M2.21937 33.5998C1.87827 33.6007 1.54441 33.6909 1.25642 33.8601C0.968426 34.0294 0.738068 34.2706 0.591995 34.556C0.445922 34.8413 0.390105 35.1591 0.431 35.4726C0.471895 35.7861 0.607832 36.0825 0.823084 36.3275L5.41175 41.5313C5.57535 41.7194 5.78507 41.8686 6.02348 41.9666C6.26189 42.0645 6.52211 42.1084 6.78253 42.0946C7.33949 42.0669 7.84233 41.7911 8.16293 41.3376L17.6947 27.1262C17.6963 27.1238 17.6979 27.1214 17.6996 27.1191C17.789 26.992 17.76 26.7401 17.5754 26.5818C17.5247 26.5383 17.4649 26.5049 17.3998 26.4837C17.3346 26.4624 17.2654 26.4537 17.1965 26.4582C17.1275 26.4626 17.0603 26.48 16.9989 26.5094C16.9375 26.5388 16.8833 26.5795 16.8395 26.629C16.8361 26.6329 16.8326 26.6368 16.829 26.6406L7.216 36.6955C7.17943 36.7337 7.135 36.7649 7.08531 36.7871C7.03561 36.8094 6.98164 36.8222 6.92653 36.825C6.87142 36.8278 6.81626 36.8204 6.76427 36.8032C6.71228 36.7861 6.66448 36.7595 6.62366 36.7251L3.4333 34.0374C3.10195 33.7562 2.66887 33.6001 2.21937 33.5998Z" fill="#42A88C"/>
<path d="M2.21937 7.14274C1.87827 7.14363 1.54441 7.2339 1.25642 7.40311C0.968426 7.57233 0.738068 7.81357 0.591995 8.09893C0.445922 8.38429 0.390105 8.7021 0.431 9.0156C0.471895 9.3291 0.607832 9.62548 0.823084 9.87044L5.41175 15.0743C5.57535 15.2623 5.78507 15.4116 6.02348 15.5095C6.26189 15.6075 6.52211 15.6514 6.78253 15.6376C7.33949 15.6099 7.84233 15.334 8.16293 14.8805L17.6947 0.669127C17.6963 0.666753 17.6979 0.664407 17.6996 0.66209C17.789 0.534963 17.76 0.28303 17.5754 0.124763C17.5247 0.0813003 17.4649 0.0479094 17.3998 0.0266459C17.3346 0.00538239 17.2654 -0.00330344 17.1965 0.00112351C17.1275 0.00555047 17.0603 0.0229965 16.9989 0.0523869C16.9375 0.0817774 16.8833 0.12249 16.8395 0.172018C16.8361 0.175912 16.8326 0.179747 16.829 0.183523L7.216 10.2385C7.17943 10.2767 7.135 10.3079 7.08531 10.3301C7.03561 10.3523 6.98164 10.3652 6.92653 10.368C6.87142 10.3707 6.81626 10.3633 6.76427 10.3462C6.71228 10.329 6.66448 10.3025 6.62366 10.2681L3.4333 7.58039C3.10195 7.29919 2.66887 7.14306 2.21937 7.14274Z" fill="#42A88C"/>
<path d="M2.21937 60.0588C1.87827 60.0596 1.54441 60.1499 1.25642 60.3191C0.968426 60.4883 0.738068 60.7296 0.591995 61.0149C0.445922 61.3003 0.390105 61.6181 0.431 61.9316C0.471895 62.2451 0.607832 62.5415 0.823084 62.7865L5.41175 67.9903C5.57535 68.1783 5.78507 68.3276 6.02348 68.4255C6.26189 68.5235 6.52211 68.5674 6.78253 68.5536C7.33949 68.5259 7.84233 68.2501 8.16293 67.7965L17.6947 53.5851C17.6963 53.5828 17.6979 53.5804 17.6996 53.5781C17.789 53.451 17.76 53.199 17.5754 53.0408C17.5247 52.9973 17.4649 52.9639 17.3998 52.9427C17.3346 52.9214 17.2654 52.9127 17.1965 52.9171C17.1275 52.9216 17.0603 52.939 16.9989 52.9684C16.9375 52.9978 16.8833 53.0385 16.8395 53.088C16.8361 53.0919 16.8326 53.0958 16.829 53.0995L7.216 63.1545C7.17943 63.1927 7.135 63.2239 7.08531 63.2461C7.03561 63.2684 6.98164 63.2812 6.92653 63.284C6.87142 63.2867 6.81626 63.2793 6.76427 63.2622C6.71228 63.2451 6.66448 63.2185 6.62366 63.1841L3.4333 60.4964C3.10195 60.2152 2.66887 60.0591 2.21937 60.0588Z" fill="#42A88C"/>
</svg>
