<svg width="36" height="36" viewBox="0 0 36 36" fill="none" xmlns="http://www.w3.org/2000/svg">
<circle cx="18" cy="18" r="18" fill="white" fill-opacity="0.2"/>
<path fill-rule="evenodd" clip-rule="evenodd" d="M14.8196 10.332C15.6422 10.2941 15.9045 10.2857 18 10.2857C20.0955 10.2857 20.3578 10.2948 21.1797 10.332C22.0016 10.3692 22.5627 10.5003 23.0536 10.6904C23.5676 10.8846 24.034 11.1883 24.4197 11.581C24.8124 11.966 25.1154 12.4317 25.3089 12.9464C25.4997 13.4373 25.6301 13.9984 25.668 14.8189C25.7059 15.6429 25.7143 15.9052 25.7143 18C25.7143 20.0955 25.7052 20.3578 25.668 21.1804C25.6308 22.0009 25.4997 22.5619 25.3089 23.0528C25.1154 23.5677 24.8119 24.0341 24.4197 24.4197C24.034 24.8124 23.5676 25.1154 23.0536 25.3089C22.5627 25.4997 22.0016 25.6301 21.1811 25.668C20.3578 25.7059 20.0955 25.7143 18 25.7143C15.9045 25.7143 15.6422 25.7052 14.8196 25.668C13.9991 25.6308 13.4381 25.4997 12.9471 25.3089C12.4323 25.1153 11.9659 24.8119 11.5803 24.4197C11.1879 24.0344 10.8841 23.5682 10.6904 23.0535C10.5003 22.5626 10.3699 22.0016 10.332 21.1811C10.2941 20.3571 10.2857 20.0948 10.2857 18C10.2857 15.9045 10.2948 15.6422 10.332 14.8203C10.3692 13.9984 10.5003 13.4373 10.6904 12.9464C10.8844 12.4317 11.1884 11.9655 11.581 11.5803C11.9661 11.1879 12.432 10.8842 12.9464 10.6904C13.4374 10.5003 13.9984 10.3699 14.8189 10.332H14.8196ZM21.1173 11.7206C20.3038 11.6834 20.0597 11.6757 18 11.6757C15.9403 11.6757 15.6962 11.6834 14.8827 11.7206C14.1302 11.7549 13.7221 11.8805 13.45 11.9864C13.0902 12.1266 12.8328 12.2928 12.5628 12.5628C12.3069 12.8118 12.1099 13.1149 11.9864 13.45C11.8805 13.7221 11.7549 14.1302 11.7206 14.8827C11.6834 15.6962 11.6757 15.9403 11.6757 18C11.6757 20.0597 11.6834 20.3038 11.7206 21.1173C11.7549 21.8698 11.8805 22.2779 11.9864 22.55C12.1098 22.8845 12.3069 23.1882 12.5628 23.4372C12.8118 23.6931 13.1155 23.8902 13.45 24.0136C13.7221 24.1195 14.1302 24.2451 14.8827 24.2794C15.6962 24.3166 15.9396 24.3243 18 24.3243C20.0604 24.3243 20.3038 24.3166 21.1173 24.2794C21.8698 24.2451 22.2779 24.1195 22.55 24.0136C22.9098 23.8734 23.1672 23.7072 23.4372 23.4372C23.6931 23.1882 23.8902 22.8845 24.0136 22.55C24.1195 22.2779 24.2451 21.8698 24.2794 21.1173C24.3166 20.3038 24.3243 20.0597 24.3243 18C24.3243 15.9403 24.3166 15.6962 24.2794 14.8827C24.2451 14.1302 24.1195 13.7221 24.0136 13.45C23.8734 13.0902 23.7072 12.8328 23.4372 12.5628C23.1882 12.3069 22.885 12.1099 22.55 11.9864C22.2779 11.8805 21.8698 11.7549 21.1173 11.7206ZM17.0147 20.3781C17.565 20.6072 18.1777 20.6381 18.7482 20.4656C19.3188 20.293 19.8117 19.9278 20.1429 19.4322C20.4741 18.9366 20.6229 18.3414 20.564 17.7483C20.5051 17.1552 20.2421 16.6009 19.8199 16.1801C19.5507 15.9112 19.2253 15.7052 18.867 15.5771C18.5088 15.449 18.1265 15.4019 17.7479 15.4393C17.3692 15.4766 17.0036 15.5975 16.6772 15.7931C16.3509 15.9887 16.072 16.2543 15.8606 16.5706C15.6492 16.887 15.5105 17.2463 15.4547 17.6227C15.3988 17.999 15.427 18.3831 15.5374 18.7472C15.6478 19.1114 15.8375 19.4465 16.093 19.7285C16.3484 20.0105 16.6632 20.2324 17.0147 20.3781ZM15.1962 15.1962C15.5644 14.828 16.0015 14.5359 16.4826 14.3367C16.9637 14.1374 17.4793 14.0348 18 14.0348C18.5207 14.0348 19.0363 14.1374 19.5174 14.3367C19.9985 14.5359 20.4356 14.828 20.8038 15.1962C21.172 15.5644 21.4641 16.0015 21.6633 16.4826C21.8626 16.9637 21.9652 17.4793 21.9652 18C21.9652 18.5207 21.8626 19.0363 21.6633 19.5174C21.4641 19.9985 21.172 20.4356 20.8038 20.8038C20.0602 21.5474 19.0516 21.9652 18 21.9652C16.9484 21.9652 15.9398 21.5474 15.1962 20.8038C14.4526 20.0602 14.0348 19.0516 14.0348 18C14.0348 16.9484 14.4526 15.9398 15.1962 15.1962ZM22.8446 14.6253C22.9358 14.5393 23.0089 14.4358 23.0594 14.321C23.1099 14.2062 23.1369 14.0824 23.1387 13.957C23.1405 13.8315 23.1172 13.707 23.07 13.5908C23.0229 13.4746 22.9529 13.369 22.8642 13.2803C22.7755 13.1916 22.6699 13.1216 22.5537 13.0744C22.4374 13.0273 22.3129 13.0039 22.1875 13.0058C22.0621 13.0076 21.9383 13.0346 21.8235 13.0851C21.7087 13.1356 21.6052 13.2086 21.5191 13.2999C21.3517 13.4773 21.2601 13.713 21.2636 13.957C21.2672 14.2009 21.3657 14.4338 21.5382 14.6063C21.7107 14.7788 21.9436 14.8773 22.1875 14.8808C22.4314 14.8844 22.6671 14.7927 22.8446 14.6253Z" fill="white"/>
</svg>
