<svg width="36" height="36" viewBox="0 0 36 36" fill="none" xmlns="http://www.w3.org/2000/svg">
<circle cx="18" cy="18" r="18" fill="white" fill-opacity="0.2"/>
<path d="M27 13.1832C26.3853 13.4555 25.725 13.6396 25.0309 13.7228C25.7471 13.2942 26.283 12.6197 26.5385 11.825C25.8655 12.2248 25.129 12.5061 24.361 12.6569C23.8445 12.1054 23.1605 11.7399 22.415 11.6171C21.6695 11.4943 20.9043 11.621 20.2382 11.9776C19.5721 12.3342 19.0424 12.9008 18.7313 13.5893C18.4202 14.2778 18.3451 15.0498 18.5177 15.7854C17.1542 15.7169 15.8203 15.3625 14.6026 14.7452C13.3849 14.1278 12.3107 13.2613 11.4495 12.2019C11.1551 12.7099 10.9858 13.2988 10.9858 13.9259C10.9854 14.4905 11.1245 15.0465 11.3905 15.5445C11.6566 16.0424 12.0415 16.467 12.511 16.7806C11.9665 16.7633 11.434 16.6161 10.9578 16.3514V16.3956C10.9577 17.1875 11.2316 17.955 11.7331 18.5679C12.2345 19.1808 12.9325 19.6013 13.7087 19.7582C13.2035 19.8949 12.6739 19.915 12.1599 19.8171C12.3789 20.4984 12.8054 21.0943 13.3799 21.5211C13.9543 21.948 14.6479 22.1846 15.3635 22.1977C14.1487 23.1513 12.6486 23.6685 11.1043 23.6662C10.8307 23.6663 10.5574 23.6503 10.2857 23.6184C11.8533 24.6263 13.678 25.1612 15.5416 25.1591C21.8501 25.1591 25.2988 19.9341 25.2988 15.4026C25.2988 15.2554 25.2951 15.1067 25.2885 14.9594C25.9593 14.4743 26.5384 13.8736 26.9985 13.1854L27 13.1832Z" fill="white"/>
</svg>
